<svg viewBox="0 0 391 108" fill="none" xmlns="http://www.w3.org/2000/svg">
<path d="M385.157 65.8418C372.157 71.342 364.165 67.9558 353.407 71.7169L353.157 89.8419C229.157 110.842 161.157 110.842 37.1572 89.8419L36.8333 70.7307C26.2329 67.1655 18.0264 71.2869 5.15723 65.842C14.1572 54.8423 11.1572 51.8425 16.1572 39.8423C9.65723 30.8425 12.1572 19.8423 5.15723 5.84204C27.6572 20.8423 54.1572 19.842 70.1572 25.342C72.1572 26.842 72.1572 38.8483 72.1572 38.8483C112.879 46.8981 160.247 52.5693 195.157 43.8418C227.533 52.5005 277.651 46.4144 318.157 38.614C318.157 38.614 318.157 26.842 320.157 25.3418C336.157 19.842 362.657 20.842 385.157 5.8418C378.157 19.842 380.657 30.8423 374.157 39.842C379.157 51.8423 376.157 54.842 385.157 65.8418Z" fill="var(--background)"/>
<path d="M318.157 38.614C318.157 38.614 318.157 26.842 320.157 25.3418C336.157 19.842 362.657 20.842 385.157 5.8418C378.157 19.842 380.657 30.8423 374.157 39.842C379.157 51.8423 376.157 54.842 385.157 65.8418C372.157 71.342 364.165 67.9559 353.407 71.7169M70.1572 25.342C70.1572 25.342 36.1572 29.842 36.1572 30.8418C36.5478 53.8828 37.1572 89.8419 37.1572 89.8419C161.157 110.842 229.157 110.842 353.157 89.8419L353.407 71.7169L353.657 58.0919C353.657 58.0919 353.962 41.4837 354.157 30.8419C354.157 29.842 320.157 25.3418 320.157 25.3418M318.157 38.614C277.651 46.4144 227.533 52.5006 195.157 43.8418C160.247 52.5693 112.879 46.8981 72.1572 38.8483M318.157 38.614C331.449 36.0544 343.759 33.3103 354.157 30.8419M36.1572 30.8418C47.0062 33.4938 59.2211 36.291 72.1572 38.8483M72.1572 38.8483C72.1572 38.8483 72.1572 26.842 70.1572 25.342C54.1572 19.842 27.6572 20.8423 5.15723 5.84204C12.1572 19.8423 9.65723 30.8425 16.1572 39.8423C11.1572 51.8425 14.1572 54.8423 5.15723 65.842C18.1572 71.3423 26.3993 67.0807 37.1572 70.8418" stroke="url(#paint0_linear_1655_219)" stroke-width="4"/>
<defs>
<linearGradient id="paint0_linear_1655_219" x1="5.15723" y1="55.7168" x2="385.157" y2="55.7168" gradientUnits="userSpaceOnUse">
<stop offset="0%" stop-color="var(--primary-gradient-2)"/>
<stop offset="25%" stop-color="var(--primary)"/>
<stop offset="50%" stop-color="var(--primary-gradient-1)"/>
<stop offset="75%" stop-color="var(--primary)"/>
<stop offset="100%" stop-color="var(--primary-gradient-2)"/>
</linearGradient>
</defs>
</svg>
