<svg viewBox="0 0 198 168" fill="none" xmlns="http://www.w3.org/2000/svg">
<path d="M166.197 1.01489C183.502 18.413 194.198 42.3925 194.198 68.8704C194.198 122.012 151.119 165.092 97.9766 165.092C44.8348 165.092 1.75488 122.012 1.75488 68.8704C1.75488 42.3928 12.4497 18.4129 29.755 1.01489C20.1976 14.5822 14.5844 31.1278 14.5844 48.9848C14.5844 95.0408 51.9204 136.375 97.9766 136.375C144.033 136.375 181.369 95.0408 181.369 48.9848C181.369 31.1276 175.754 14.5823 166.197 1.01489Z" fill="#E0FDFF"/>
<path d="M180.908 13.2583C191.148 27.9388 194.622 40.2923 196.714 56.57C197.159 60.5261 197.387 64.6446 197.353 68.8704C198.47 103.72 173.452 142.981 143.201 156.904C129.321 163.996 113.618 167.697 97.9766 167.591C85.5279 167.539 73.1356 165.11 61.7471 160.527C60.4291 159.997 59.6759 159.614 59.0832 159.356C53.4769 157.037 44.6253 151.97 39.8618 148.298C29.2998 141.195 15.0947 123.962 10.4174 113.327C8.20568 108.947 6.40086 104.247 5.86747 102.414C5.26996 100.733 4.88381 99.8304 4.73355 99.3871C4.732 99.382 4.73045 99.3769 4.7289 99.3718C4.22845 97.9424 3.26662 94.2764 3.0717 93.454C3.04306 93.3326 3.15473 94.0982 2.69334 92.1212C2.65547 91.944 2.72809 92.0996 2.35403 90.4281C2.21926 89.9975 1.08517 84.3837 0.906414 82.7544C0.462922 79.7108 -0.0509037 74.2435 0.00415719 68.8704C0.022577 64.7323 0.346136 60.677 0.677663 57.8647C0.793516 56.8768 0.841359 56.3064 0.988283 55.2648C1.06402 54.7268 1.2149 53.9296 1.24173 53.7635C1.34095 53.0372 1.80636 49.8732 1.83256 51.0448C2.45734 47.7732 2.21087 48.7211 2.1682 48.6362C2.93124 45.0929 3.54088 43.4468 3.67704 42.505C8.21133 26.4796 16.9592 11.7093 28.7347 3.32594e-05L30.9315 1.84365C30.2775 2.76281 29.6422 3.69584 29.0264 4.64155C29.0377 4.65493 29.049 4.6683 29.0603 4.68167C26.276 8.92342 25.6123 10.5527 24.2203 13.0915C23.4497 14.7033 22.7318 16.3399 22.0684 17.998C17.9979 27.7842 15.8924 38.378 15.8556 48.9848C15.5166 84.4522 38.9532 119.014 72.2144 131.003C74.0344 131.647 74.468 131.85 77.5244 132.743C80.8946 133.716 85.7406 134.733 90.3488 135.2C92.5031 135.43 95.2104 135.613 97.9766 135.626C100.393 135.642 102.809 135.532 104.917 135.346C105.934 135.258 106.664 135.162 106.781 135.149C107.456 135.072 107.492 135.085 108.144 135.001C108.924 134.9 109.859 134.75 110.753 134.602C114.111 134.065 117.689 133.118 118.1 133C120.097 132.455 120.534 132.313 120.698 132.268C122.895 131.577 122.064 131.817 122.61 131.641C125.428 130.677 127.419 129.973 131.106 128.227C131.011 128.285 130.915 128.343 130.819 128.401C133.641 127.061 131.765 127.921 132.338 127.64C132.601 127.583 138.5 124.357 138.908 124.026C140.446 123.08 140.487 123.052 140.62 122.971C140.953 122.784 144.711 120.223 146.541 118.776C148.721 117.085 146.184 119.114 146.726 118.694C146.825 118.632 149.073 116.817 149.367 116.564C149.705 116.299 147.779 117.893 147.807 117.865C147.844 117.869 151.026 115.202 150.423 115.722C149.978 116.187 145.581 119.711 144.59 120.377C144.431 120.494 144.741 120.289 144.6 120.392C144.171 121.015 133.067 127.739 132.414 127.778C133.015 127.472 133.613 127.158 134.207 126.837C133.412 127.253 132.61 127.656 131.801 128.046C132.947 127.485 134.08 126.897 135.199 126.283C133.526 127.18 128.37 129.629 128.149 129.716C128.065 129.779 131.283 128.416 128.312 129.738C128.769 129.548 129.223 129.354 129.676 129.156C130.603 128.734 131.524 128.293 132.435 127.835C131.824 128.132 131.21 128.421 130.592 128.703C130.817 128.593 131.041 128.483 131.265 128.371C132.983 127.548 134.671 126.665 136.328 125.724C137.182 125.245 137.011 125.356 137.594 125.02C144.744 120.612 140.107 123.526 144.63 120.401C145.269 119.944 145.901 119.478 146.527 119.003C146.288 119.147 148.246 117.694 150.46 115.745C150.2 115.983 149.939 116.219 149.676 116.454C153.017 113.776 158.947 107.442 157.31 109.116C157.977 108.4 158.633 107.673 159.277 106.934C159.813 106.304 160.339 105.668 160.858 105.024C161.583 104.14 162.291 103.242 162.981 102.332C162.987 102.33 162.993 102.328 162.999 102.326C162.449 103.053 161.889 103.771 161.316 104.481C161.755 103.956 162.187 103.424 162.613 102.889C163.021 102.355 163.424 101.815 163.82 101.272C162.126 103.53 164.344 100.54 164.837 99.7864C166.2 97.8389 167.026 96.5588 167.453 95.8865C167.675 95.5836 169.892 91.7608 169.043 93.2709C170.185 91.3072 171.255 89.2975 172.247 87.2532C172.639 86.455 173.019 85.6503 173.386 84.8419C172.609 86.6077 174.906 81.5096 173.231 85.2729C171.941 88.0679 171.556 88.7228 170.883 90.0178C170.264 91.1799 169.936 91.7944 169.223 93.035C164.35 101.343 159.364 107.525 152.721 113.798C151.401 115.03 150.165 116.112 149.234 116.89C148.181 117.765 149.493 116.661 148.148 117.77C146.725 118.923 146.409 119.164 146.027 119.46C145.788 119.643 145.019 120.208 144.307 120.721C141.406 122.874 136.856 125.574 136.398 125.803C135.965 126.23 126.747 130.597 126.228 130.627C125.984 130.716 126.474 130.491 124.388 131.325C123.73 131.566 123.067 131.798 122.403 132.021C122.507 131.975 122.611 131.928 122.715 131.882C118.781 133.19 120.134 132.768 116.269 133.78C111.185 135.047 104.607 136.005 97.9766 135.969C92.4936 135.966 87.0142 135.308 82.3779 134.32C80.0984 133.822 79.2203 133.633 76.5644 132.87C74.067 132.228 67.8439 129.72 69.1786 130.31C63.9342 128.034 63.1154 127.602 60.6206 126.2C60.3124 126.042 60.0052 125.881 59.6989 125.719C57.0328 124.124 56.1937 123.654 53.387 121.749C52.191 120.908 53.5825 121.859 51.1654 120.166C50.715 119.826 50.2679 119.483 49.8242 119.135C49.9352 119.206 50.0463 119.276 50.1576 119.346C47.5629 117.345 47.4371 117.165 47.6894 117.447C46.4741 116.434 45.285 115.387 44.1275 114.31C43.9727 114.188 43.8182 114.066 43.664 113.943C43.9186 114.197 50.6212 120.598 59.0916 125.403C67.4621 130.398 77.4027 133.264 79.8309 133.783C84.2325 134.981 92.3377 136.099 97.9766 136.011C99.6025 136.013 101.009 135.962 102.061 135.909C103.963 135.8 104.797 135.78 107.545 135.457C110.291 135.135 113.704 134.441 115.133 134.1C120.186 133.76 141.324 123.942 126.898 130.435C127.324 130.274 127.748 130.11 128.171 129.943C133.889 127.34 131.843 128.325 136.438 125.861C138.377 124.825 142.73 121.937 142.498 122.115C139.14 124.431 135.362 126.577 132.175 128.128C131.868 128.301 128.068 130.089 126.039 130.838C124.212 131.513 125.474 131.065 121.471 132.458C118.453 133.362 116.694 133.814 115.886 134.02C114.485 134.358 114.329 134.365 112.921 134.647C111.386 134.947 110.319 135.13 110.111 135.164C108.467 135.508 101.297 136.222 97.9766 136.114C97.05 136.111 96.4313 136.093 96.3195 136.088C96.7693 136.093 97.2199 136.094 97.6712 136.091C94.7615 136.043 95.3737 136.059 94.6112 136.039C94.046 136.013 93.4802 135.981 92.9104 135.942C93.1361 135.951 93.3621 135.959 93.5882 135.966C90.1622 135.708 92.7758 136.012 87.9411 135.445C84.8821 135.049 81.761 134.334 81.474 134.268C81.3875 134.249 82.3312 134.478 81.104 134.206C79.0594 133.769 75.6042 132.757 75.23 132.598C74.2562 132.294 74.3331 132.339 74.2037 132.299C73.5865 132.265 64.1248 128.443 62.5733 127.444C58.0655 125.141 53.2937 122.096 48.9903 118.696C48.5479 118.346 48.8404 118.556 48.3988 118.203C47.6703 117.663 44.1337 114.63 43.6442 114.134C42.343 112.98 39.1632 109.698 38.6909 109.156C38.6205 109.082 39.621 110.204 38.4249 108.916C37.1104 107.473 37.8415 108.229 37.7697 108.151C35.1447 105.169 33.6016 103.188 31.9992 101C31.4797 100.289 30.573 98.9468 29.8837 97.9156C29.8041 97.7971 29.9396 98.0469 29.861 97.9307C28.8114 96.3747 27.9425 94.853 27.5316 94.1535C26.5326 92.4388 27.0513 93.3871 26.9975 93.2988C26.3337 92.1571 25.4782 90.5955 24.5686 88.8041C20.5737 80.7936 18.1102 73.8097 16.3381 64.4581C16.1215 63.283 15.9346 61.8733 15.9091 61.6923C15.8291 61.1339 15.8092 61.3007 15.6012 59.6802C15.1787 56.2564 14.9685 53.0694 14.9425 49.6557C14.9407 49.3833 14.9454 49.1725 14.9517 48.9848C14.9613 48.6987 14.9742 48.4665 14.9781 48.1504C14.9362 46.3942 15.292 40.4121 15.4523 40.3297C15.7344 36.8559 16.2086 34.5802 16.7771 31.8383C18.0178 25.3064 21.6118 15.4723 24.8914 9.71107C25.5582 8.48782 25.913 7.93801 26.3041 7.26911C26.747 6.48793 28.6471 3.38096 30.1458 1.29016L29.4161 0.677814C28.4147 1.68429 27.664 2.4856 27.5607 2.59187C27.0012 3.19593 27.1853 2.69771 24.4825 5.96947C22.879 7.86887 23.0391 7.62109 22.7079 8.01467C20.1489 11.1063 18.066 14.4143 18.3812 13.7443C15.7462 17.6019 14.3163 20.2729 13.2828 21.8766C13.3446 21.8829 12.2898 23.8084 11.1011 26.1719C12.2623 23.7268 11.9279 23.9189 15.305 18.2949C15.3594 18.2071 15.2897 18.3956 15.3441 18.3077C15.8344 17.5101 16.8663 15.851 17.77 14.5354C18.6758 13.2207 18.196 13.9666 18.5603 13.442C18.8966 12.9639 18.8537 12.9573 19.3484 12.2701C20.9558 10.0435 22.4736 8.14373 23.4751 6.94499C24.1051 6.18868 24.85 5.3767 25.3568 4.80563C26.2813 3.75946 27.7217 2.18118 29.3163 0.578495L30.2609 1.37127C28.8285 3.40023 27.4229 5.63298 26.4379 7.31829C26.0505 7.98631 26.1737 7.68266 25.3483 9.1574C25.2542 9.33072 24.9308 9.97458 24.2592 11.2914C23.5895 12.6103 23.0816 13.6384 22.6867 14.5027C22.3608 15.2272 22.5176 14.9331 21.869 16.4262C20.9858 17.546 16.4925 32.2622 16.6704 33.1691C16.4355 34.3472 16.3007 34.9031 16.1856 35.6282C16.1659 35.756 16.1693 35.9781 16.1039 36.4198C15.6496 39.4478 15.1545 44.0372 15.1515 48.9848C15.0854 55.9563 16.1742 63.5506 17.3151 68.3469C21.346 85.5018 29.6948 100.306 42.402 112.759C42.6336 112.976 42.8663 113.193 43.1001 113.407C41.7942 112.168 40.5292 110.891 39.301 109.574C39.3035 109.556 39.306 109.538 39.3085 109.52C37.6637 107.731 37.87 107.978 37.8965 108.046C37.3046 107.368 36.7217 106.68 36.1513 105.985C35.5841 105.449 31.8917 100.706 30.2241 98.0979C29.101 96.4258 27.8423 94.391 27.3122 93.4699C26.1941 91.5268 26.2708 91.5516 26.1823 91.3993C26.0326 91.1405 24.526 88.397 23.5795 86.3459C22.1971 83.3104 22.0624 82.9718 20.4205 78.7123C18.4446 73.2057 16.8166 66.8997 15.9726 60.6537C16.1702 61.8377 15.3957 56.2447 15.3166 53.6922C15.2349 52.1576 15.1931 50.5902 15.197 48.9848C15.031 34.3835 19.9223 17.6386 27.5689 5.70329C28.6347 3.98908 29.5253 2.75045 30.1679 1.82873C30.26 1.69692 30.3362 1.58322 30.4076 1.47458L29.1891 0.451985C28.9374 0.722147 28.7321 0.96053 28.2867 1.41186C28.1821 1.52116 28.0714 1.56052 26.9674 2.72427C24.114 5.53644 18.1157 13.485 16.7636 15.6126C9.2393 27.0128 4.16965 40.0295 2.02377 53.5283C1.94988 53.8645 1.87767 54.2016 1.80743 54.5374C1.53452 56.603 0.733986 63.5809 0.775715 68.8704C0.770323 70.18 0.792859 71.3772 0.826703 72.365C1.01741 81.182 3.18246 92.3121 5.71411 99.6174C6.24378 101.211 6.67784 102.512 7.24923 103.999C7.49498 104.638 7.84754 105.412 8.11869 106.068C11.0765 113.494 16.5367 122.925 21.6032 129.201C32.961 143.521 47.4177 154.127 64.8365 160.532C75.4395 164.395 86.7013 166.361 97.9766 166.375C150.036 167.689 196.74 120.927 195.752 69.131C195.752 69.033 195.753 68.9469 195.755 68.8704C195.77 68.2951 195.827 68.2603 195.823 67.6893C195.88 63.8718 195.066 55.3674 194.207 51.1408C193.641 47.7529 192.378 42.4385 191.907 41.3434C194.31 50.0585 195.649 59.4505 195.598 68.8704C195.584 72.1767 195.404 75.4675 195.06 78.7223C194.963 79.6193 194.879 79.7238 194.866 79.8339C194.594 81.8675 194.869 80.6003 194.449 83.5361C194.412 84.5533 192.265 93.4654 192.662 92.4381C192.349 94.65 187.07 109.214 185.462 111.771C185.066 112.588 185.407 112.04 185.33 112.203C184.991 112.909 184.754 113.185 184.429 113.803C183.593 115.463 181.258 119.588 180.756 120.338C179.697 122.123 176.092 127.178 174.36 129.296C172.8 131.255 173.161 130.946 171.758 132.598C170.63 133.881 171.835 132.466 169.242 135.259C167.989 136.675 163.253 141.289 162.001 142.3C160.788 143.353 159.386 144.46 157.638 145.819C155.157 147.825 149.402 151.717 146.563 153.293C146.395 153.39 146.017 153.68 145.599 153.912C144.731 154.39 144.953 154.178 144.293 154.527C143.727 155.058 131.932 160.402 129.766 160.892C128.335 161.382 127.344 161.738 126.546 161.982C125.918 162.171 125.833 162.131 125.19 162.317C124.993 162.375 123.306 162.917 121.594 163.336C119.99 163.792 113.768 164.932 113.029 164.994C112.556 165.065 113.081 165.036 111.688 165.234C110.417 165.409 109.57 165.449 108.84 165.528C107.144 165.713 105.271 165.917 103.459 166.014C98.2914 166.241 98.5408 166.064 98.2324 166.085C98.1416 166.085 98.0565 166.085 97.9766 166.085C97.294 166.09 96.9894 166.136 96.7352 166.134C95.5321 166.134 92.6238 166.024 91.5499 165.943C90.2235 165.854 89.6685 165.749 88.2719 165.611C87.2252 165.507 85.1046 165.329 82.7418 164.954C77.4005 164.135 71.1406 162.563 66.1366 160.792C64.6452 160.268 64.4399 160.126 63.9855 159.957C61.6065 159.052 60.2885 158.536 59.6184 158.249C54.8207 156.286 46.7923 151.68 42.9109 148.862C41.262 147.814 34.4426 142.632 31.0279 139.211C30.6301 138.829 31.0284 139.16 30.5825 138.738C29.5211 137.724 29.568 137.869 29.0433 137.34C28.7913 137.084 28.246 136.469 27.5298 135.706C23.8214 131.738 21.5274 128.783 20.0467 126.798C7.4959 110.043 0.8554 88.7608 1.02653 68.8704C1.03198 66.1175 1.15226 63.3921 1.38127 60.7072C1.59251 58.2462 1.9009 55.1898 2.60534 51.5218C2.64521 51.4122 2.68525 51.3026 2.72546 51.1932C2.73048 51.0613 2.73578 50.9293 2.74137 50.7974C3.55601 46.6503 3.9109 45.0852 5.1479 40.9496C5.25604 40.5942 5.67517 39.5365 5.79312 38.8365C7.24538 34.8135 6.39709 37.0045 7.5024 34.027C8.64295 31.0642 9.92267 28.2529 11.3102 25.5071C12.07 24.0035 9.07406 30.4102 8.9533 30.8598C8.65985 31.5426 8.31636 32.2333 8.04669 32.8966C7.24492 34.8578 6.60577 36.8056 6.40641 37.2393C5.57097 39.8477 6.64464 36.612 6.58105 36.9523C5.95858 38.6706 5.38554 40.4046 4.86126 42.1567C4.61937 43.0569 2.26808 52.8745 2.61284 52.2286C2.45101 53.0136 2.29805 53.8057 2.15552 54.5953C1.81376 58.1024 1.45438 60.1465 1.17773 64.8384C1.21215 64.5006 1.24822 64.1641 1.28603 63.8268C1.26873 63.9205 1.1779 68.0656 1.13447 66.5827C1.13664 67.5345 1.14146 68.2661 1.14254 68.8704C1.16047 70.9644 1.06309 71.5203 1.31749 74.4643C1.48615 76.7268 1.26592 75.377 1.65666 79.4082C1.90871 81.8045 2.37869 84.7473 2.8924 87.3802C3.0101 87.9865 3.01534 88.2552 3.12727 88.7975C3.24003 89.3377 3.34204 89.5909 3.48815 90.2416C3.78831 91.5869 4.19103 93.3172 4.42113 94.1522C4.62533 94.8971 4.95249 95.9513 5.50589 97.7196C7.54415 103.884 6.94171 102.013 7.24963 102.994C7.62038 104.034 7.96951 104.748 8.8108 106.772C8.89627 106.976 8.62592 106.47 8.90908 107.129C9.14152 107.659 9.29563 107.911 10.1026 109.642C10.269 110.41 15.949 120.783 17.1094 122.185C18.5882 124.516 22.2345 129.474 24.1227 131.623C24.8351 132.463 25.6463 133.317 26.4337 134.181C29.0193 137.068 33.4871 141.392 37.3385 144.452C40.7331 147.298 47.1844 151.669 49.3655 152.745C54.7712 155.817 56.1783 156.403 56.5836 156.634C57.7288 157.176 58.2851 157.371 59.7541 158.006C70.5965 162.739 84.4834 165.926 97.9766 165.873C108.091 165.913 117.855 164.267 125.898 161.842C165.876 150.458 195.74 110.707 195.156 68.8704C195.163 64.5829 194.893 60.3017 194.341 56.0512C194.291 55.934 194.241 55.8171 194.19 55.7003C194.732 59.8101 195.017 64.501 194.982 68.8704C194.973 70.2065 194.939 71.5054 194.886 72.7431C194.718 79.849 192.951 90.3307 191.197 95.2521C191.773 93.2131 192.629 89.8858 192.494 89.916C191.667 93.595 190.622 97.2302 189.366 100.792C189.454 100.703 189.541 100.614 189.628 100.525C188.352 104.258 186.782 107.99 185.04 111.543C184.736 112.161 184.995 111.745 184.727 112.282C184.425 112.881 184.587 112.453 184.53 112.565C183.76 114.074 183.551 114.541 183.454 114.724C183.199 115.188 183.362 114.808 182.607 116.138C181.198 118.6 180.199 120.37 180.384 119.701C179.902 120.479 179.409 121.249 178.906 122.013C178.822 122.24 178.737 122.468 178.65 122.695C175.307 127.227 173.929 129.453 171.694 131.642C171.063 132.451 170.42 133.251 169.763 134.041C169.333 134.433 168.901 134.821 168.466 135.204C168.422 135.318 168.378 135.431 168.334 135.545C164.509 139.537 160.114 143.48 155.859 146.626C152.886 148.799 152.137 149.272 149.387 151.026C143.167 154.76 149.341 151.053 144.051 153.935C144.352 153.833 144.654 153.729 144.955 153.624C144.089 154.126 143.22 154.613 142.34 155.087C141.702 155.366 141.06 155.639 140.416 155.904C137.744 157.455 135.808 158.045 135.425 158.21C135.111 158.331 134.104 158.954 130.63 160.09C132.118 159.761 128.005 161.011 127.668 161.093C127.358 161.212 123.369 162.447 121.709 162.833C120.422 163.163 117.619 163.754 115.672 164.103C113.945 164.416 114.127 164.434 114.001 164.458C111.861 164.804 113.195 164.549 111.652 164.773C110.109 164.987 108.905 165.167 108.568 165.199C108.398 165.215 108.958 165.099 108.183 165.176C106.119 165.391 102.346 165.684 99.9644 165.711C99.3719 165.723 98.6698 165.707 97.9766 165.692C97.6786 165.686 97.383 165.679 97.0988 165.676C95.6503 165.658 94.9756 165.694 94.1387 165.66C93.8519 165.647 91.986 165.483 89.6813 165.299C89.2444 165.264 87.9365 165.351 86.2569 164.863C86.1205 164.886 85.9841 164.909 85.8475 164.932C78.1314 163.967 76.1282 162.976 72.7171 162.405C67.3011 160.826 71.0561 161.786 70.4636 161.603C70.0838 161.484 68.3224 160.964 68.1309 160.896C67.7917 160.782 67.8608 160.768 67.4889 160.645C60.7201 158.266 63.7101 159.35 61.572 158.577C56.5459 156.555 52.8099 154.586 61.388 158.444C61.3952 158.426 61.4024 158.408 61.4096 158.391C59.2377 157.578 53.955 154.997 55.7642 155.766C57.0875 156.592 70.0864 161.606 62.7535 158.693C61.1037 158.007 60.2063 157.739 57.4474 156.327C55.6049 155.448 55.25 155.481 52.8255 154.134C53.2002 154.4 53.5771 154.664 53.9565 154.926C50.5396 153.281 46.5824 150.761 44.1625 149.151C43.3257 148.626 40.2694 146.762 41.108 147.024C39.7009 146.124 33.683 141.104 32.6514 140.074C32.4063 139.826 31.8959 139.699 28.3812 136.042C28.1497 135.776 27.9196 135.508 27.691 135.24C30.9229 138.559 25.3385 132.583 26.9629 134.107C27.414 134.715 29.9417 137.376 30.3548 137.799C31.0419 138.54 28.8318 136.499 31.6036 139.146C33.4993 140.652 28.468 135.934 29.3904 136.504C25.828 132.971 25.641 132.459 24.8874 131.612C21.7599 127.904 19.9138 125.46 17.4015 121.635C16.7015 120.758 21.3864 127.602 22.1144 128.344C19.6811 125.441 23.6282 130.631 25.5598 132.598C25.6771 132.802 25.7951 133.006 25.9139 133.21C23.5485 130.518 21.3771 127.776 19.2879 124.91C19.1678 124.712 19.0485 124.513 18.9299 124.314C19.408 124.951 19.8938 125.581 20.387 126.204C18.6965 123.793 19.5852 125.324 17.4825 122.006C17.3727 121.933 17.2629 121.86 17.1533 121.786C15.1016 118.623 13.2357 115.341 11.5695 111.963C10.5288 110.285 7.75786 103.575 8.40504 104.749C7.3468 102.022 8.58947 105.415 7.5775 102.864C7.13632 101.751 6.37611 99.5517 6.23443 98.9891C6.41341 99.1949 7.56999 102.476 8.04526 103.428C7.51545 102.928 3.08507 87.3475 3.78011 88.6611C3.53976 87.3895 3.57226 87.9942 3.13705 85.703C2.22961 80.9693 1.66381 74.2088 1.67034 68.8704C1.65911 66.9645 1.69345 65.2447 1.72116 63.8618C1.58527 65.9212 1.55207 67.502 1.55134 68.8704C1.56279 71.6091 1.66367 73.4522 1.90446 76.6095C1.65837 79.7075 5.67085 97.7268 4.71686 93.7231C4.90665 94.3764 5.10319 95.0266 5.30638 95.6736C5.46007 96.3427 5.62036 97.0089 5.78806 97.6747C5.20969 95.8357 4.68287 93.9639 4.21651 92.0905C4.14254 91.634 4.07171 91.1767 4.00404 90.7189C3.93029 90.5175 3.85722 90.3157 3.78481 90.1134C3.60191 89.3206 3.4273 88.5162 3.26575 87.7239C3.34098 87.9417 3.41683 88.1582 3.49379 88.3759C3.24822 87.1501 3.0262 85.9177 2.82763 84.6768C2.84104 85.0174 2.85614 85.358 2.87294 85.6984C1.92874 79.8574 2.29101 81.835 1.99108 78.5634C1.78322 76.1321 2.03023 80.2577 1.61817 75.0958C1.35921 70.3895 1.51446 71.7859 1.49877 68.8704C1.5057 68.0586 1.51232 66.9259 1.56943 65.2259C1.55359 65.113 1.53796 65.0001 1.52254 64.8872C1.61325 63.1767 1.74885 61.4662 1.92941 59.7617C1.88362 59.9847 1.83856 60.2081 1.79422 60.4318C2.07911 56.9026 2.82637 52.0773 3.15756 50.9463C2.47333 54.4666 2.69289 54.4674 2.85702 53.5491C2.23825 51.4294 11.0462 24.3317 14.922 20.0568C18.5214 14.011 21.7527 9.75573 25.9423 4.88673C22.7284 7.89326 14.1294 20.6215 12.9863 23.3199C12.8495 23.5724 12.7497 23.4288 12.044 25.1475C9.30263 30.437 6.63932 37.086 4.74864 44.2886C4.76504 44.0576 4.78234 43.8266 4.80055 43.5957C6.07153 39.1973 7.40385 35.1654 7.34525 35.7805C7.65879 34.9235 7.98352 34.0738 8.32108 33.2268C8.2951 33.2165 8.26911 33.2062 8.24312 33.1958C8.7525 31.9186 9.28937 30.6523 9.85267 29.3992C9.87793 29.4106 9.90319 29.4219 9.92845 29.4332C10.3951 28.3946 10.879 27.3669 11.3823 26.3454C11.4101 26.227 11.4382 26.1087 11.4665 25.9904C12.8621 22.8668 18.9995 12.9879 16.3923 17.3861C17.2484 16.0341 18.138 14.7036 19.0599 13.3962C19.0411 13.3893 19.0223 13.3825 19.0035 13.3757C19.3979 12.8118 19.7986 12.2517 20.205 11.6965C20.0845 11.8891 19.9647 12.0822 19.8457 12.2757C21.6721 9.70367 23.6375 7.44719 24.9476 5.84599C24.0449 6.87003 23.1633 7.91349 22.3039 8.97515C23.9239 6.91568 27.1152 3.29406 27.427 2.99339C28.2414 2.12561 28.7372 1.65661 29.5686 0.829439L29.97 1.16634C29.8979 1.26719 29.8231 1.37287 29.7449 1.48445C29.0141 2.53483 29.1424 2.4094 29.0068 2.60527C25.2359 8.38182 26.5595 6.12156 25.0998 8.99585C24.9128 9.28443 24.7277 9.57411 24.5442 9.86538C24.3467 10.2782 24.1527 10.6921 23.9622 11.1075C23.029 12.9197 22.1628 14.7664 21.366 16.6428C21.6584 16.029 21.9592 15.4177 22.2668 14.8121C21.0273 17.6005 20.4934 18.9227 20.379 19.1954C20.0758 19.9752 19.9807 20.3492 19.8916 20.5918C16.0647 32.4274 18.3103 25.2136 16.6334 31.21C16.226 33.3931 16.7379 31.2053 16.8636 30.9111C16.2194 33.7887 16.0658 34.6991 15.6216 37.7794C15.5113 38.5809 15.3813 39.4439 15.3262 39.9517C15.276 40.3925 15.1684 41.7723 15.0928 42.8323C14.9677 44.5025 14.8477 46.6995 14.8464 48.9848C14.8462 49.1175 14.8463 49.2505 14.8469 49.3837C14.8124 51.4057 15.1289 57.5804 15.8278 61.8343C16.1103 63.6533 16.029 63.2334 16.1063 63.7022C16.1388 63.8981 16.4156 65.301 16.657 66.4562C18.5904 75.8776 22.1726 85.2012 27.0571 93.5468C30.4908 99.4329 34.6693 105.006 39.3486 109.975C40.3487 111.03 39.807 110.483 40.2464 110.941C40.4017 111.094 40.5893 111.278 42.1861 112.856C42.7674 113.423 42.0804 112.79 42.6558 113.344C42.94 113.609 43.0621 113.721 44.7493 115.239C47.8374 117.976 49.6163 119.305 49.9021 119.537C50.456 119.956 50.3052 119.819 51.0438 120.367C54.6696 123.033 57.8712 125.018 61.4097 126.916C62.9452 128.053 74.9527 132.891 75.7131 132.858C77.2345 133.317 75.804 132.944 77.7648 133.496C78.317 133.638 78.8711 133.774 79.4272 133.904C78.5485 133.676 77.6784 133.434 76.8083 133.176C79.1979 133.886 81.9669 134.499 83.7813 134.838C84.1176 134.915 87.2049 135.462 88.8047 135.636C88.1258 135.56 87.4491 135.474 86.7748 135.381C87.0121 135.422 87.2499 135.462 87.488 135.5C90.6717 135.938 94.0491 136.192 97.3436 136.221C97.6334 136.224 97.8291 136.225 97.9766 136.227C98.4346 136.229 98.427 136.24 99.3376 136.227C106.32 135.932 104.569 136.035 111.234 135.137C109.015 135.649 100.735 136.365 99.53 136.273C99.2237 136.279 98.5954 136.276 97.9766 136.265C96.8964 136.247 95.8577 136.202 96.6169 136.275C89.9176 135.987 95.7205 136.308 89.4847 135.772C89.6074 135.797 89.7303 135.822 89.8533 135.846C87.6702 135.617 86.0747 135.368 84.7662 135.119C84.3025 135.159 77.0151 133.586 73.1767 132.167C67.5802 130.288 61.5258 127.404 56.569 124.301C54.8584 123.236 53.9354 122.563 53.7252 122.423C53.419 122.217 52.5524 121.646 51.9536 121.215C49.643 119.701 43.2899 114.235 41.8222 112.75C53.5195 124.203 68.5661 132.371 84.7391 135.183C83.0964 134.956 93.3791 136.529 97.9766 136.313C99.1002 136.313 99.8706 136.29 100.036 136.286C100.813 136.265 100.159 136.301 100.39 136.295C102.106 136.25 103.576 136.114 104.121 136.07C104.537 136.035 105.374 135.983 106.846 135.813C107.117 135.782 107.191 135.761 107.481 135.725C109.403 135.485 111.283 135.178 113.187 134.793C113.303 134.77 113.785 134.688 114.263 134.584C114.741 134.48 115.213 134.355 115.333 134.326C116.85 133.985 119.414 133.296 120.823 132.847C121.311 132.694 120.97 132.791 121.516 132.616C123.188 132.066 122.65 132.281 124.699 131.535C125.383 131.277 125.335 131.285 126.636 130.774C127.556 130.405 127.467 130.469 127.613 130.41C127.821 130.343 130.943 128.949 131.949 128.457C129.77 129.569 134.351 127.28 134.108 127.348C135.311 126.724 136.499 126.071 137.67 125.389C138.066 125.15 138.46 124.908 138.852 124.664C143.506 121.798 146.199 119.796 150.296 116.315C150.513 116.166 153.856 113.107 153.691 113.239C151.744 115.131 149.69 116.899 148.329 117.978C146.116 119.785 146.094 119.842 142.308 122.482C141.029 123.347 140.936 123.407 140.789 123.506C135.815 126.907 127.027 130.952 123.145 132.12C122.078 132.511 125.923 131.138 124.433 131.684C124.033 131.852 118.914 133.664 114.517 134.585C110.137 135.546 106.608 135.904 109.896 135.425C109.216 135.534 108.534 135.633 107.848 135.724C107.166 135.88 103.754 136.194 104.136 136.104C103.812 136.139 103.488 136.173 103.163 136.204C102.519 136.255 101.763 136.305 100.699 136.346C100.139 136.367 99.1965 136.397 97.9766 136.397C90.2458 137.057 72.4637 132.497 71.5598 131.711C71.5279 131.713 71.496 131.715 71.464 131.717C79.8566 134.78 88.5453 136.408 97.9766 136.434C99.8981 136.435 101.809 136.368 103.789 136.223C103.449 136.239 103.108 136.252 102.766 136.263C107.428 135.986 112.074 135.276 116.61 134.152C111.832 135.451 103.986 136.514 98.7842 136.473C97.8569 136.477 98.5366 136.457 98.3235 136.457C98.2131 136.457 98.101 136.457 97.9766 136.458C97.474 136.461 96.7687 136.484 95.1745 136.432C93.1854 136.413 88.2023 135.883 87.7498 135.787C86.8717 135.678 84.5116 135.34 83.0332 135.037C81.0959 134.641 82.3985 134.887 82.01 134.806C80.4075 134.464 78.9682 134.115 77.7303 133.777C75.8774 133.299 72.1218 132.017 70.8596 131.576C72.1374 132.056 73.4295 132.504 74.7292 132.917C67.678 130.66 62.4202 128.108 56.1865 124.332C54.7384 123.519 59.8767 126.681 55.5238 124.021C56.3058 124.517 57.096 125.001 57.8939 125.472C58.0882 125.57 58.2828 125.667 58.4778 125.764C59.8513 126.573 61.2498 127.344 62.6683 128.073C62.2678 127.856 61.8695 127.636 61.4727 127.413C66.4694 130.076 71.8552 132.013 73.715 132.672C73.8303 132.694 73.9456 132.715 74.061 132.737C79.0248 134.493 86.8345 135.718 85.3681 135.537C85.6132 135.573 85.8585 135.608 86.1043 135.642C89.2394 136.115 87.9062 135.879 89.0912 136.026C89.4186 136.122 95.5798 136.566 92.8448 136.406C97.5755 136.676 97.4402 136.518 97.9766 136.524C98.1214 136.519 98.3159 136.515 98.6679 136.511C102.524 136.598 109.406 135.673 106.513 136.069C107.086 136.006 107.656 135.937 108.225 135.862C110.084 135.567 111.926 135.3 113.925 134.889C114.599 134.746 115.276 134.593 115.95 134.431C116.397 134.309 116.844 134.184 117.288 134.054C123.572 132.35 121.517 132.702 124.38 131.878C123.947 132.044 123.513 132.207 123.077 132.366C122.039 132.728 120.996 133.069 119.943 133.388C124.19 132.123 128.332 130.493 132.31 128.539C137.345 126.032 140.101 124.357 145.174 120.711C145.642 120.36 146.107 120.005 146.568 119.645C146.108 120.024 144.317 121.421 147.66 118.83C147.957 118.624 145.715 120.396 144.645 121.139C144.39 121.322 146.537 119.733 144.112 121.502C142.433 122.663 145.533 120.631 140.438 124.012C140.631 123.894 140.824 123.775 141.017 123.655C140.461 124.017 139.901 124.373 139.337 124.722C138.83 125.023 138.32 125.319 137.806 125.609C136.503 126.38 135.795 126.862 132.703 128.424C133.537 127.992 132.397 128.561 130.844 129.288C130.847 129.296 130.851 129.303 130.855 129.311C127.075 131.022 128.373 130.427 125.173 131.708C124.847 131.823 124.52 131.936 124.193 132.047C122.463 132.802 115.793 134.676 116.995 134.276C115.128 134.832 111.117 135.613 109.612 135.781C109.499 135.808 109.385 135.836 109.271 135.863C108.474 135.985 107.672 136.094 106.868 136.191C106.416 136.239 105.973 136.281 105.524 136.32C104.956 136.383 104.387 136.44 103.816 136.491C103.47 136.507 103.124 136.522 102.777 136.534C101.855 136.605 100.946 136.66 100.025 136.698C99.4613 136.706 98.8967 136.708 98.3309 136.703C98.3223 136.706 98.1942 136.71 97.9766 136.713C96.7064 136.761 92.4621 136.586 91.1358 136.425C90.6729 136.391 90.2109 136.353 89.7499 136.311C89.5264 136.277 89.3021 136.241 89.0768 136.204C88.7311 136.174 88.386 136.14 88.0414 136.105C87.2512 135.995 86.4646 135.873 85.6818 135.738C82.4648 135.254 82.3816 135.134 81.6555 134.991C80.3005 134.741 75.7673 133.56 75.027 133.293C74.2802 133.059 73.9278 132.923 73.3302 132.722C63.5735 129.099 67.6142 130.507 65.6689 129.751C64.6405 129.29 63.9286 128.927 63.0349 128.487C61.4471 127.843 54.0408 123.458 53.686 123.093C53.092 122.686 54.5485 123.558 52.6022 122.259C52.488 122.285 48.4942 119.265 50.3279 120.721C48.675 119.487 47.0665 118.193 45.5055 116.845C45.6405 117.046 43.7233 115.373 41.727 113.449C38.7958 110.819 33.0846 104.05 33.3985 104.214C32.8032 103.485 32.2196 102.748 31.6463 102.001C27.8414 96.8072 24.6014 91.3447 21.9453 85.5279C16.8633 74.4551 13.8783 61.6554 13.8913 48.9848C13.8779 41.9315 14.7591 34.9455 16.4092 28.379C16.6325 27.4981 16.6322 27.6321 16.8006 26.9996C17.5859 23.6468 20.6193 15.2047 22.9179 10.9527C23.6183 9.57662 24.0123 8.93431 24.2471 8.50526C25.0565 7.05387 24.8328 7.37823 25.2143 6.71404C25.6463 5.94588 27.5529 2.8376 29.1648 0.599096L30.2669 1.52406C29.5573 2.23281 28.9443 2.86996 28.5432 3.29458C27.8068 4.07325 26.979 5.03435 26.1465 5.97221C26.0748 6.05297 26.1782 5.87851 26.1176 5.94693C24.6199 7.67547 25.5433 6.65507 25.0403 7.24265C21.4751 11.4506 18.0506 16.279 15.0818 21.4738C14.3392 22.7595 13.2455 24.7541 12.6753 25.8955C12.4582 26.3308 12.8681 25.5602 12.1253 27.0685C11.8736 27.5868 11.7536 27.7473 11.4753 28.3348C10.2916 30.8767 10.0506 31.7901 9.06791 33.9902C7.30564 38.2953 5.1152 46.0988 4.38023 50.2741C4.18992 51.2564 4.0782 51.7364 3.91831 52.6757C3.80474 53.343 3.65531 54.5294 3.51338 55.575C3.36979 56.6234 3.12315 58.2756 2.94823 60.3006C2.75429 62.4354 2.66833 65.095 2.65764 65.5778C2.63959 66.1608 2.58584 66.4325 2.57581 67.0138C2.56836 67.4665 2.56382 68.1155 2.57014 68.8704C2.57842 71.0617 2.73654 74.0727 2.87344 75.765C3.06046 78.1946 3.21898 79.6493 3.31906 80.4792C3.41336 81.2463 3.57821 82.1304 3.62961 82.478C3.70967 83.0196 3.67978 83.1498 3.78962 83.8419C3.97169 84.9688 4.20005 86.1217 4.53811 87.7879C10.5584 118.021 31.871 143.805 59.2103 155.839C62.2621 157.168 64.0101 157.874 68.6567 159.424C70.5544 160.031 69.7319 159.839 71.2182 160.268C71.8822 160.454 71.7274 160.36 72.5687 160.591C76.2838 161.623 80.6868 162.504 82.3405 162.758C82.9968 162.864 83.7531 162.929 85.0945 163.109C89.1419 163.647 93.4818 163.957 97.9766 163.949C104.632 163.947 111.522 163.205 117.877 161.823C123.523 160.673 131.85 157.951 137.809 155.094C154.469 147.52 169.431 133.723 178.15 119.564C187.708 104.455 192.742 86.671 192.677 68.8704C192.667 61.6627 191.852 54.4618 190.235 47.4378C191.596 53.6291 192.58 61.1777 192.561 68.8704C192.569 75.3669 191.878 81.9302 190.69 87.772C183.944 125.007 150.199 157.954 111.439 162.823C107.261 163.426 102.721 163.79 97.9766 163.799C87.5973 163.862 76.4665 161.993 66.9102 158.644C66.2794 158.427 64.9606 158.006 63.6122 157.48C63.3187 157.384 59.8275 155.877 58.669 155.327C59.7149 155.962 55.2041 153.748 53.846 152.997C52.1112 152.1 48.4852 150.189 44.7096 147.587C41.3011 145.199 42.2957 145.785 42.1035 145.658C40.9286 144.777 40.4721 144.528 39.5749 143.845C35.4052 141.609 19.2521 124.079 16.4852 117.911C15.605 116.447 15.6314 116.375 15.437 116.043C14.9282 115.16 14.1781 113.914 13.4259 112.464C12.0559 109.851 10.7125 106.735 10.0965 105.235C8.55045 101.678 6.15835 94.6979 5.1057 89.7595C4.79621 88.3737 4.86509 88.4446 4.73404 87.8178C4.09799 85.0697 3.03807 77.7701 2.91039 74.2518C2.80724 72.4753 2.7553 70.6879 2.75439 68.8704C2.75191 64.8895 3.00055 60.869 3.4782 56.9102C3.54196 56.5481 3.60797 56.1848 3.67584 55.8234C3.73343 55.2458 3.79591 54.6717 3.86434 54.0943C5.35439 44.4027 8.38777 34.7654 12.7726 26.0421C13.2374 25.0153 15.966 20.1615 16.4834 19.3894C16.8841 18.729 17.2458 18.0597 17.8711 17.0995C18.7567 15.7619 17.9826 17.0597 19.4287 14.876C19.8239 14.293 19.4028 14.8322 20.2074 13.668C20.3891 13.2208 26.0029 6.08618 26.4091 5.78867C26.9485 5.17995 27.489 4.6913 27.6314 4.53725C28.3733 3.73852 28.3037 3.73712 28.8014 3.20044C29.2831 2.68358 29.8239 2.12504 30.3458 1.6025L29.0738 0.535034C28.1793 1.79737 27.4162 2.94791 27.2861 3.15047C24.8693 6.74245 21.1918 13.9607 19.6044 18.2123C19.374 18.7959 19.367 18.7124 19.3262 18.8147C19.0666 19.4758 18.9541 19.9068 18.7279 20.5424C17.4735 23.9579 15.9521 29.4574 15.304 33.0596C15.2243 33.4731 15.0852 34.3521 14.9628 35.093C14.3118 39.2941 14.5198 37.93 14.4731 38.1677C14.3991 38.7364 14.309 39.7398 14.1754 41.2572C14.0007 43.2151 13.8347 46.0808 13.8452 48.9848C13.8464 51.8851 14.0235 54.8051 14.223 56.8938C14.5376 60.0288 14.5402 59.9822 14.5567 60.1882C14.6159 60.6263 14.7982 61.8383 15.16 63.8828C15.8957 67.7993 15.8286 67.3566 16.188 68.9546C16.2229 69.0881 16.1807 68.8515 16.6305 70.6136C17.4299 74.0409 19.9993 81.5186 21.6182 84.9199C22.2132 86.2372 22.3795 86.5341 23.0272 87.8654C24.0195 89.9927 26.6244 94.6084 26.8678 94.9505C26.9287 95.0505 27.0871 95.2617 27.4494 95.8468C27.8484 96.4903 28.2372 97.1239 28.5462 97.5974C30.2634 100.321 33.6922 104.672 32.6803 103.508C33.3272 104.309 33.9893 105.101 34.6625 105.88C38.946 111.07 43.6716 115.646 48.9473 119.72C50.135 120.635 51.1362 121.386 52.1732 122.112C53.1824 122.88 57.9204 125.833 58.7546 126.254C60.1326 127.211 68.6951 131.239 69.8479 131.533C71.9867 132.368 74.1002 133.083 74.9959 133.35C75.715 133.563 75.0542 133.351 76.4296 133.749C78.8006 134.458 82.9129 135.361 83.6604 135.477C83.9783 135.526 83.3852 135.446 86.367 135.918C87.9761 136.157 88.8489 136.265 89.438 136.331C89.6228 136.339 89.3394 136.338 92.5569 136.588C94.7859 136.736 95.7242 136.754 95.9606 136.764C96.259 136.771 96.9156 136.775 97.9766 136.769C98.1637 136.768 98.3632 136.767 98.5751 136.765C101.87 136.791 107.881 136.25 110.948 135.663C111.543 135.553 111.345 135.596 113.705 135.115C115.387 134.753 115.097 134.824 115.726 134.679C116.725 134.438 118.194 134.058 120.361 133.4C123.368 133.261 142.233 123.695 142.804 122.527C143.41 122.114 144.104 121.619 144.402 121.411C144.153 121.599 143.904 121.786 143.653 121.971C140.985 123.795 142.065 123.064 141.356 123.547C140.338 124.263 136.318 126.668 135.308 127.185C134.952 127.377 135.78 126.964 133.864 127.982C131.798 129.057 130.837 129.454 130.011 129.876C126.982 131.2 124.018 132.348 127.583 130.947C129.862 130.729 147.907 119.916 150.709 116.517C153.354 114.27 157.933 109.646 160.62 106.333C162.273 104.446 165.87 99.4288 165.704 99.6328C166.953 97.7935 165.623 99.7341 165.882 99.3464C166.485 98.5744 170.122 92.6618 170.684 91.4725C173.815 85.7987 176.85 78.1691 178.462 72.091C178.388 72.3741 178.313 72.6568 178.236 72.939C177.922 74.3182 175.789 80.522 175.478 81.1962C178.966 72.2613 181.019 62.7762 181.456 53.1992C181.447 53.2713 181.55 51.3461 181.54 48.9848C181.556 45.5649 181.176 41.2799 181.133 40.951C181.156 41.158 181.179 41.3651 181.201 41.5726C181.572 46.0943 181.52 47.2945 181.55 48.9848C181.552 49.7978 181.55 50.7246 181.498 52.1833C181.427 54.0127 181.451 53.4634 181.404 54.3669C180.647 63.336 181.493 54.5224 180.694 61.3652C180.996 59.3123 180.226 64.908 179.646 67.3757C179.604 67.9585 177.669 75.2711 177.311 76.1056C175.851 80.944 172.343 88.908 169.77 93.2229C167.792 96.6475 166.609 98.4798 164.532 101.409C162.927 103.613 163.373 102.97 162.596 103.991C160.936 106.113 160.378 106.8 159.219 108.079C158.022 109.459 156.785 110.802 155.507 112.107C155.502 112.102 155.497 112.097 155.492 112.092C154.687 112.909 153.866 113.71 153.03 114.496C152.789 114.732 152.546 114.967 152.303 115.201C149.591 117.631 150.699 116.59 150.178 117.026C149.581 117.538 148.977 118.042 148.367 118.538C147.906 118.935 147.439 119.328 146.969 119.716C144.2 121.878 141.297 123.873 138.28 125.679C138.081 125.789 137.881 125.898 137.681 126.006C137.679 126.017 137.677 126.028 137.674 126.038C132.542 129.057 127.08 131.527 121.404 133.352C119.928 133.941 128.918 130.703 129.524 130.272C133.302 128.82 142.411 123.218 142.365 123.127C144.474 121.776 150.371 117.106 152.059 115.482C149.435 117.872 146.666 120.104 143.768 122.158C143.867 122.099 143.966 122.04 144.065 121.981C140.413 124.48 139.868 124.835 135.935 127.129C135.925 127.119 135.915 127.11 135.905 127.1C133.176 128.736 128.009 130.946 127.872 131.033C126.308 131.684 124.73 132.284 123.127 132.835C119.62 133.823 125.236 132.884 111.256 135.978C110.28 136.146 110.486 136.1 109.02 136.326C108.595 136.372 106.182 136.845 101.492 137.094C100.763 137.128 100.707 137.115 99.9474 137.137C99.3942 137.152 98.6661 137.169 97.9766 137.173C96.4801 137.184 95.1879 137.144 96.2746 137.134C89.3394 136.852 92.2072 136.955 90.061 136.82C88.6357 136.684 88.9196 136.682 87.6843 136.536C86.1631 136.3 87.2503 136.664 81.2045 135.441C81.8796 135.585 82.5575 135.721 83.238 135.847C82.8976 135.774 82.558 135.698 82.2192 135.62C78.7755 134.908 79.1117 134.908 77.4934 134.548C75.0296 133.852 72.9089 133.207 69.6351 131.968C63.356 129.368 66.4623 130.921 59.603 127.295C58.4951 126.7 57.4005 126.08 56.3197 125.436C54.577 124.324 55.9972 125.205 53.4185 123.514C55.3869 124.914 50.0012 121.255 49.1274 120.582C49.0435 120.502 48.9598 120.421 48.8763 120.341C48.3282 119.923 47.7847 119.498 47.2466 119.067C47.2381 119.074 47.2296 119.081 47.2211 119.088C46.5097 118.508 45.8072 117.917 45.114 117.314C44.5815 116.874 44.0537 116.428 43.5318 115.976C42.7011 115.202 41.8851 114.411 41.0848 113.606C40.5737 113.11 40.0683 112.608 39.5688 112.1C39.7151 112.272 39.8622 112.444 40.0099 112.615C39.3652 111.964 38.73 111.303 38.1051 110.633C38.8252 111.419 38.3109 110.983 36.3986 108.864C34.8533 107.086 36.5878 109.093 33.3426 105.208C33.1367 104.92 32.6312 104.522 29.8285 100.637C26.5748 95.9042 28.1971 98.174 27.6245 97.3269C27.515 97.1587 26.5492 95.6944 25.7129 94.2778C25.2361 93.4757 24.812 92.6847 24.7516 92.5771C24.4697 92.0756 24.3643 91.9421 23.9828 91.2414C23.0115 89.4641 21.8178 87.0183 21.0087 85.208C20.6377 84.3862 20.2891 83.6118 20.1324 83.2406C19.8884 82.6644 19.6117 81.9231 19.3795 81.3361C18.5037 79.175 17.2945 75.8429 17.0975 74.7677C16.2937 72.6681 15.3027 68.0641 15.327 68.4135C14.1411 63.9334 12.875 53.3821 13.0554 48.9848C13.0607 47.6838 13.1002 46.9336 13.1271 47.0408C13.102 43.6363 13.2108 43.9428 13.2938 42.5215C13.4123 40.9314 13.3244 41.7522 13.4381 40.491C13.7208 37.5432 14.1415 34.745 14.7182 31.8534C14.646 32.3116 14.5778 32.7687 14.5132 33.227C15.1084 30.1939 14.8404 31.2244 15.5559 28.1509C17.0219 22.5331 16.4682 24.9191 16.7371 24.1056C16.5665 24.2939 18.7781 17.8136 19.1115 17.1937C19.2811 16.8142 18.6138 18.5082 20.2291 14.6417C20.119 14.8435 20.0097 15.046 19.9011 15.2491C20.6345 13.4837 22.9173 8.82085 23.378 8.06731C23.5723 7.71035 24.7592 5.90235 25.6894 4.15087C25.8322 3.95841 25.9759 3.76633 26.1204 3.57516C26.8486 2.38433 27.6068 1.21011 28.393 0.0554615L30.9362 2.18976C30.4005 2.74636 29.8718 3.30943 29.3501 3.87878C29.0911 4.0991 28.8331 4.32088 28.5761 4.5441C28.1208 5.03941 27.6707 5.53956 27.226 6.04431C27.5466 5.73195 27.869 5.42199 28.1935 5.11428C25.3681 8.16034 22.3611 12.2466 21.777 12.8771C21.2708 13.6082 20.7748 14.3469 20.2901 15.0914C19.9304 15.5454 19.5742 16.0036 19.2224 16.4643C16.9927 19.9265 17.0127 20.0206 15.6526 22.4823C15.6788 22.371 15.7052 22.2596 15.7319 22.1483C14.7391 23.973 13.0323 27.3566 11.8337 30.099C11.2492 31.3947 10.2895 33.6418 10.1759 33.9583C10.0404 34.2719 9.05528 37.46 8.80737 37.7558C7.29987 42.4298 6.75852 44.5213 6.27955 46.4535C5.9831 47.7143 5.8912 48.2956 5.60274 49.7293C5.19301 51.7775 4.84443 53.8543 4.67951 55.0488C4.58496 55.7318 4.60625 55.865 4.54623 56.337C4.28264 58.5699 4.38769 57.2548 4.15368 59.6154C4.134 59.8319 4.01795 61.563 3.91413 63.5116C3.84233 64.6003 3.72777 67.4235 3.73487 67.672C3.7314 68.3072 3.76701 68.2863 3.77543 68.8704C3.78401 69.3044 3.77156 70.0728 3.77094 71.6804C3.78762 71.5703 3.80446 71.4602 3.82148 71.3502C4.05038 76.0046 4.11585 76.7551 4.18018 77.6899C4.19002 77.8088 4.34069 78.9353 4.41806 79.6145C4.54633 80.759 4.56478 81.2229 4.59651 81.4755C4.70137 82.3604 5.1952 85.3519 5.55188 87.287C5.55969 86.8644 7.16796 93.5794 7.51561 95.0773C7.89136 96.2409 8.29029 97.3975 8.71266 98.5474C8.86387 99.0802 9.01963 99.6114 9.17989 100.141C9.31855 100.448 9.4588 100.755 9.60065 101.06C10.1634 102.755 10.772 104.429 11.4293 106.089C11.5304 106.169 11.6317 106.249 11.7331 106.329C11.928 106.789 12.1265 107.246 12.3285 107.702C12.4471 108.076 12.5679 108.449 12.691 108.822C12.9667 109.381 13.2482 109.938 13.5358 110.493C13.6364 110.616 13.7374 110.738 13.8386 110.86C15.4397 113.799 14.2264 112.513 17.7557 117.846C18.2543 118.706 18.7661 119.558 19.2911 120.402C20.0223 121.262 21.1476 123.04 22.173 124.39C22.8967 125.34 22.8983 125.259 23.9006 126.54C24.9125 127.815 24.8427 127.797 24.9207 127.897C25.758 128.926 26.4461 129.656 27.08 130.394C27.1765 130.505 27.366 130.827 28.1968 131.749C29.0323 132.668 29.5892 133.172 30.8743 134.499C31.536 135.176 31.6925 135.406 32.2913 135.996C35.1493 138.813 38.4183 141.179 40.5976 143.261C41.1464 143.664 45.21 146.418 46.988 147.525C49.7378 149.278 48.6464 148.658 49.7478 149.342C49.9103 149.433 50.7595 149.947 53.1653 151.258C53.5963 151.491 53.5144 151.403 53.5766 151.436C56.3681 152.978 62.0063 155.56 65.3127 156.726C65.6127 156.832 67.1675 157.308 69.7779 158.276C73.7115 159.447 81.2421 161.411 86.6673 161.797C87.4139 161.881 88.3248 162.013 88.6532 162.042C91.5013 162.243 90.4715 162.183 96.9339 162.502C96.6085 162.459 97.0675 162.429 97.9766 162.404C98.5354 162.388 99.2622 162.373 100.077 162.353C103.291 162.245 101.006 162.463 103.594 162.312C103.592 162.278 103.59 162.244 103.588 162.21C109.518 161.84 110.696 161.536 116.539 160.414C118.648 159.994 121.72 159.279 122.218 159.135C122.412 159.089 124.64 158.357 124.85 158.284C126.048 157.913 126.744 157.727 127.773 157.378C131.182 156.241 135.07 154.415 134.437 154.911C135.33 154.48 136.215 154.035 137.09 153.577C140.569 152.192 142.853 150.533 143.639 150.339C144.198 149.97 144.752 149.595 145.302 149.215C159.058 141.047 170.644 129.282 178.59 115.428C178.9 114.871 182.105 108.694 182.208 108.349C182.933 106.88 182.396 108.54 183.692 105.448C183.77 105.076 183.843 104.708 183.915 104.338C185.435 100.426 184.755 102.326 185.382 100.789C185.606 100.134 185.48 100.326 185.782 99.4402C187.545 94.663 189.838 84.4617 190.257 78.9117C190.368 77.7926 190.403 77.9716 190.435 77.6248C190.52 76.6779 190.595 74.7804 190.664 72.8672C190.712 71.5949 190.737 70.259 190.731 68.8704C190.863 57.4074 187.817 43.0054 183.561 33.2386C183.249 32.4922 183.272 32.3723 183.055 31.8701C182.757 31.1735 181.996 29.6595 181.651 28.9427C181.328 28.2651 181.163 27.8103 180.803 27.0921C179.171 23.7932 176.564 19.5912 174.433 16.2815C174.276 15.9913 172.063 12.4922 172.002 12.4167C171.743 11.9188 174.19 14.7003 170.546 9.84849C174.001 14.0289 173.305 12.446 168.796 6.97345C171.168 9.62033 173.391 12.4028 175.451 15.3039C175.478 15.2909 175.506 15.278 175.534 15.265C173.794 12.5281 171.908 9.89807 168.644 6.19028C168.767 6.28647 168.891 6.38303 169.014 6.47995C172.031 9.64706 175.213 13.8686 177.199 16.5558C174.607 12.3995 171.69 8.43337 168.481 4.70504C168.663 4.87144 168.845 5.03858 169.025 5.20649C170.674 6.89818 173.938 10.8949 175.114 12.4669C179.683 18.4198 171.317 7.10791 172.741 8.92272C177.709 15.1101 181.908 21.914 185.201 29.1329C185.304 29.2464 182.284 22.275 178.135 15.9198C174.086 9.50282 168.995 3.8297 169.207 3.85646C170.913 5.6974 172.548 7.60516 174.106 9.57436C173.474 8.64811 172.825 7.73226 172.159 6.82619C172.375 7.04891 172.589 7.27278 172.803 7.49776C175.539 10.7479 178.064 14.1817 180.353 17.769C173.35 6.86756 168.803 2.78667 167.099 0.117596C167.358 0.358063 167.615 0.599992 167.871 0.843371C169.725 2.97901 178.334 13.1193 181.777 19.328C181.177 18.0081 177.698 12.8462 176.934 11.7755C176.73 11.4626 177.547 12.4774 177.072 11.7546C175.937 9.78402 169.776 2.35407 170.742 3.36763C171.622 3.80039 181.125 16.1552 182.375 18.9738C178.877 12.7694 174.484 6.82936 169.706 1.48909C172.917 4.66656 175.871 7.4865 180.498 14.3803C182.217 16.2794 171.835 2.06288 171.307 1.94771C173.408 4.16138 175.409 6.47393 177.3 8.87608C175.732 6.82024 174.084 4.82558 172.362 2.89823C172.374 2.8771 172.387 2.85597 172.399 2.83483C176.886 7.80258 180.716 12.6657 184.527 19.3467C184.527 19.0616 182.173 15.1018 180.908 13.2583ZM171.242 90.603C171.327 90.4783 170.039 92.8865 169.251 94.2086C169.37 94.0101 169.488 93.8111 169.605 93.6117C168.018 96.4921 164.536 101.519 164.395 101.699C163.012 103.591 163.603 102.739 163.149 103.343C162.975 103.58 161.118 106.015 159.494 107.846C159.114 108.287 158.729 108.723 158.34 109.155C158.272 109.245 158.203 109.335 158.135 109.425C157.582 110.018 157.022 110.604 156.453 111.183C162.309 105.054 167.293 98.1053 171.237 90.6141C171.239 90.6104 171.241 90.6067 171.242 90.603ZM104.548 136.84C102.276 137.053 99.1377 137.139 97.9766 137.143C97.5552 137.149 97.4029 137.155 97.6606 137.166C97.7659 137.166 97.8712 137.165 97.9766 137.165C99.8457 137.155 101.678 137.079 103.538 136.936C103.875 136.906 104.212 136.874 104.548 136.84ZM11.1992 105.806C12.1091 108.153 13.1509 110.226 14.9831 113.648C15.0003 113.633 15.0175 113.618 15.0347 113.603C14.2117 112.245 12.3438 108.482 11.1992 105.806ZM174.997 16.8078C174.777 16.287 174.553 15.7686 174.322 15.2522C175.249 17.3557 175.41 17.7358 176.333 20.1665C176.387 20.3135 176.37 20.2621 176.389 20.3134C176.609 20.9097 176.805 21.4651 176.993 22.0085C177.351 23.0569 177.645 23.9129 178.201 25.7965C178.623 27.2565 178.614 27.2729 178.754 27.7887C178.889 28.2221 179.976 32.6017 180.414 35.4734C180.811 38.2067 180.286 33.7723 178.959 28.5856C177.691 23.3805 175.346 17.5702 174.997 16.8078ZM167.209 2.47412C167.515 2.92499 167.817 3.37936 168.114 3.83618C167.212 2.46772 169.052 5.21722 170.26 7.32427C170.246 7.24526 167.567 2.86192 166.197 1.01489C166.539 1.49759 166.877 1.98424 167.209 2.47412ZM179.365 68.4448C179.827 66.3574 179.75 66.7043 179.74 66.7936C179.602 67.4609 179.457 68.126 179.304 68.7889C179.324 68.6743 179.345 68.5595 179.365 68.4448ZM181.462 52.5306C181.47 53.1943 181.171 57.8259 180.86 60.0082C180.846 60.103 180.925 59.5049 180.719 61.0451C180.687 61.5098 179.921 66.046 180.069 65.0439C180.835 60.9106 181.302 56.735 181.461 52.5368C181.461 52.5347 181.462 52.5327 181.462 52.5306ZM181.517 47.8442C181.524 48.2238 181.529 48.604 181.531 48.9848C181.534 49.4804 181.533 49.9755 181.527 50.47C181.517 50.9221 181.504 51.3736 181.487 51.8246C181.514 50.8801 181.527 49.9334 181.523 48.9848C181.523 48.9359 181.523 48.887 181.522 48.8381C181.523 48.5064 181.521 48.1751 181.517 47.8442ZM183.738 107.752C183.613 107.914 183.488 108.074 183.363 108.235C183.038 108.925 181.559 112.368 182.12 111.325C182.685 110.144 183.224 108.953 183.738 107.752ZM189.077 92.9055C189.298 92.155 189.506 91.4117 189.707 90.6586C189.831 89.7683 189.941 88.8756 190.039 87.9808C189.229 91.7843 187.994 95.7188 188.412 95.1481C188.167 96.0029 187.911 96.8493 187.64 97.7005C187.767 96.9524 187.725 97.0498 186.932 99.2344C186.901 99.7592 186.063 102.017 185.05 104.575C185.811 102.725 186.516 100.845 187.156 98.9511C187.179 98.9589 187.202 98.9667 187.225 98.9745C185.748 103.19 187.781 98.0105 188.456 95.1737C188.551 94.9625 188.645 94.7508 188.738 94.5385C188.856 93.9955 188.969 93.4512 189.077 92.9055ZM16.6574 19.5497C16.3568 20.0216 16.0605 20.4956 15.768 20.9728C14.8448 22.9444 16.8605 19.0061 18.7247 16.4712C18.0527 17.2712 20.7398 13.3067 20.9198 13.0972C20.5695 13.524 20.2224 13.9542 19.8792 14.387C18.7493 16.0741 17.675 17.7956 16.6574 19.5497ZM9.51755 33.6896C10.2619 31.8999 6.91766 40.8236 6.21037 43.9483C6.00184 44.697 5.61628 46.0274 5.49526 46.5753C5.43522 46.9107 5.37686 47.2472 5.32063 47.5828C5.12582 47.9499 4.00065 54.0943 3.79054 56.5433C3.73704 56.7703 3.6845 56.9962 3.63268 57.2227C3.53643 58.1111 3.45204 59.0081 3.38115 59.8976C3.36677 59.7833 3.35261 59.669 3.33867 59.5546C3.30444 60.2315 3.27745 60.9097 3.25775 61.5893C3.1175 64.2412 3.08079 62.6009 3.02563 64.598C2.98772 66.8178 3.20938 63.1884 3.27106 63.2583C3.33393 61.4617 3.69382 57.378 3.96349 55.569C4.12479 54.5322 3.97402 55.7133 4.64507 51.2384C4.84925 50.2676 5.06851 49.3002 5.30274 48.3366C5.65105 46.5511 6.05257 44.7718 6.50515 43.0081C6.62848 42.6897 6.75354 42.3716 6.88003 42.0549C6.91629 41.8635 8.12138 37.829 8.04566 38.0384C8.64879 36.4416 9.85052 33.1482 11.3707 29.7849C11.5002 29.4533 11.6317 29.1225 11.765 28.7926C10.3306 32.0632 11.2801 29.8203 10.8176 30.7799C10.5504 31.3343 9.79387 33.0563 9.51755 33.6896ZM170.889 128.728C174.459 123.967 172.358 126.996 176.058 121.735C175.749 122.068 175.437 122.398 175.123 122.726C173.462 125.417 170.107 129.4 170.885 128.733C170.887 128.731 170.888 128.73 170.889 128.728ZM191.859 70.7682C191.807 74.1569 192.026 72.4585 191.772 76.7624C191.772 76.7644 191.771 76.7665 191.771 76.7685C191.958 74.547 192.066 72.3271 192.096 70.0958C192.018 70.3207 191.939 70.5448 191.859 70.7682ZM47.8141 149.091C45.0643 147.316 45.5802 147.702 43.1883 145.939C39.5473 143.43 42.5811 145.619 42.5288 145.693C43.3668 146.262 44.2141 146.816 45.0701 147.358C47.0642 148.785 45.0999 147.541 45.0961 147.545C45.0978 147.546 45.0995 147.548 45.1012 147.549C45.0858 147.572 45.0142 147.535 45.7911 148.068C46.4617 148.418 47.136 148.759 47.8141 149.091ZM36.4318 140.923C37.3348 141.598 37.7555 141.877 35.5461 139.922C35.5446 139.921 35.543 139.919 35.5415 139.918C35.267 139.871 33.2326 137.898 32.3036 137.003C32.0489 136.779 31.7954 136.554 31.5431 136.328C33.1177 137.915 34.7486 139.448 36.4318 140.923ZM8.44817 100.756C8.57505 100.699 9.42258 103.025 8.36871 99.7001C8.14408 99.0612 7.92611 98.4192 7.71487 97.7739C7.54913 97.3589 7.38635 96.9423 7.22732 96.5269C5.22311 88.164 3.86721 85.8616 8.26085 99.7372C8.26162 99.7392 8.26238 99.7411 8.26314 99.743C8.32307 100.081 8.38475 100.419 8.44817 100.756ZM14.7119 114.563C14.8302 114.622 14.9485 114.682 15.067 114.741C15.8414 116.486 17.2121 118.529 19.1841 121.689C19.3916 121.955 19.6014 122.221 19.8121 122.485C20.3556 123.817 29.1356 134.312 27.3469 131.938C26.5133 130.951 24.6469 128.843 24.5012 128.649C23.9856 128.01 23.3658 127.136 22.5214 126.038C22.032 125.403 20.9606 124.098 20.0267 122.754C17.8981 119.774 14.619 113.963 12.4066 109.692C12.2766 109.371 12.1484 109.049 12.0219 108.727C10.5324 105.489 10.9429 106.601 9.76485 103.501C8.38325 101.591 15.3297 115.627 13.7373 112.781C13.7382 112.783 13.7392 112.785 13.7402 112.786C14.058 113.382 14.3807 113.972 14.7119 114.563ZM94.8984 163.399C95.0437 163.46 97.0531 163.461 97.9766 163.482C98.3926 163.495 98.5852 163.521 98.2818 163.58C99.6386 163.508 100.986 163.407 102.323 163.278C102.312 163.262 102.301 163.245 102.29 163.228C100.959 163.306 99.6208 163.355 98.275 163.377C98.2697 163.35 98.2645 163.323 98.2592 163.295C98.1757 163.3 98.0812 163.304 97.9766 163.308C95.5656 163.49 87.9529 162.912 88.215 162.788C87.7667 162.784 87.3187 162.776 86.8712 162.765C82.9366 162.197 79.5289 161.731 75.3328 160.617C74.9994 160.57 74.6664 160.52 74.3336 160.469C74.1272 160.389 73.9212 160.31 73.7157 160.229C72.1835 159.825 70.6735 159.385 69.1655 158.905C64.2235 157.426 73.7247 160.612 74.9506 160.765C75.1079 160.8 75.0985 160.733 76.0814 160.954C77.808 161.477 87.698 163.169 90.8098 163.194C90.8331 163.242 90.8563 163.29 90.8797 163.338C92.2213 163.387 93.5651 163.407 94.8984 163.399ZM3.97118 82.0954C3.97537 81.866 3.98033 81.6368 3.98605 81.4075C3.43018 77.5203 3.35002 75.0656 3.29345 76.0736C3.2936 76.0757 3.29377 76.0778 3.29393 76.0798C3.45545 78.087 3.68201 80.1017 3.97118 82.0954ZM119.379 133.821C119.267 133.824 117.444 134.362 115.036 134.934C115.154 134.915 115.272 134.895 115.39 134.876C116.636 134.545 118.218 134.255 121.996 133.026C121.992 133.014 121.988 133.002 121.984 132.99C121.122 133.281 120.253 133.559 119.379 133.821ZM4.49148 85.436C4.64426 86.6231 5.47072 89.8697 5.02456 87.7119C4.69251 86.0671 4.40477 84.8 4.49148 85.436ZM191.264 57.4458C191.36 58.3152 191.443 59.1922 191.514 60.0628C191.609 60.5121 191.7 60.9631 191.788 61.4159C191.788 61.4138 191.788 61.4118 191.788 61.4097C191.641 60.0821 191.467 58.7617 191.264 57.4458ZM57.6427 154.421C54.9308 153.156 52.2804 151.763 49.701 150.246C49.663 150.251 49.6251 150.257 49.5871 150.262C52.2161 151.705 53.2528 152.326 53.8654 152.661C53.8626 152.66 53.8599 152.659 53.8572 152.657C55.8374 153.716 57.7633 154.653 59.6977 155.535C59.007 155.171 58.3219 154.8 57.6427 154.421ZM67.0911 158.404C66.678 158.056 66.0348 157.911 61.7255 156.307C61.8854 156.396 62.0456 156.485 62.2062 156.573C64.4202 157.453 65.7553 157.867 65.3274 157.814C65.9136 158.016 66.5008 158.213 67.0911 158.404ZM28.2084 133C28.5266 133.46 31.6403 136.552 31.5026 136.352C31.4129 136.306 27.5317 132.16 28.2084 133ZM149.1 117.836C148.307 118.493 147.501 119.137 146.685 119.766C147.766 118.922 148.827 118.054 149.866 117.161C149.612 117.388 149.357 117.613 149.1 117.836ZM157.264 110.023C157.758 109.48 156.197 111.288 159.13 108.022C157.028 110.427 154.799 112.721 152.45 114.891C153.548 113.87 154.62 112.821 155.663 111.748C155.474 111.928 155.283 112.107 155.092 112.285C155.829 111.544 156.553 110.79 157.264 110.023ZM159.568 107.485C158.481 108.814 164.202 101.8 164.602 101.043C164.713 100.891 165.242 100.172 165.431 99.9029C164.653 101.026 163.848 102.134 163.021 103.221C163.302 102.861 163.581 102.498 163.857 102.133C162.909 103.422 161.926 104.687 160.911 105.924C161.341 105.392 161.766 104.855 162.184 104.313C161.336 105.391 160.464 106.447 159.568 107.485ZM130.906 129.421C131.945 128.935 132.973 128.427 133.99 127.898C133.782 127.993 133.573 128.088 133.364 128.181C132.753 128.493 132.138 128.797 131.519 129.094C131.315 129.204 131.111 129.313 130.906 129.421ZM150.394 116.687C149.173 117.829 145.572 120.602 149.698 117.26C150.109 116.917 150.51 116.58 150.394 116.687ZM166.529 98.252C168.432 95.2453 168.07 95.9653 166.207 98.764C166.112 98.9038 166.383 98.4762 166.529 98.252ZM177.804 74.1878C177.88 73.9101 178.07 73.4429 178.752 70.7774C178.867 70.3376 178.978 69.8976 179.085 69.4573C178.964 70.5258 176.254 79.2025 176.577 77.9853C177.032 76.6725 177.389 75.5671 177.804 74.1878ZM174.813 82.4572C174.296 83.7196 173.75 84.9683 173.177 86.2047C173.372 85.7989 173.563 85.3929 173.751 84.9846C173.479 85.5974 173.201 86.2073 172.915 86.815C172.416 87.8481 171.898 88.8702 171.361 89.8822C172.726 87.2537 173.963 84.5578 175.066 81.8068C174.983 82.0236 174.898 82.2404 174.813 82.4572ZM154.818 112.406C156.68 110.56 158.893 108.216 161.564 104.897C161.565 104.896 161.567 104.894 161.568 104.892C161.701 104.727 161.945 104.439 162.366 103.899C162.872 103.547 169.265 93.9755 168.691 94.6743C166.396 98.4887 165.363 99.8041 164.786 100.703C164.654 100.876 164.522 101.048 164.389 101.22C161.85 104.666 161.053 105.599 159.507 107.441C159.509 107.43 159.511 107.419 159.513 107.408C158.462 108.625 157.383 109.811 156.269 110.97C156.428 110.81 156.588 110.649 156.746 110.487C156.356 110.9 155.961 111.309 155.563 111.715C154.58 112.69 153.316 113.905 154.818 112.406ZM176.968 76.6648C177.503 75.511 180.67 63.6203 180.989 57.9868C180.721 60.9228 179.978 65.4211 179.235 68.5501C177.743 74.5742 178.785 70.413 178.535 71.4359C178.419 71.9445 177.424 75.3215 176.968 76.6648ZM147.675 118.793C150.089 116.852 151.379 115.689 153.342 113.866C153.182 114.024 153.021 114.18 152.859 114.336C152.244 115.025 146.488 119.809 147.675 118.793ZM181.452 49.7891C181.296 55.7595 181.388 52.8181 181.182 55.9178C181.343 53.877 181.432 51.8372 181.447 49.7891C181.449 49.7891 181.45 49.7891 181.452 49.7891ZM5.24578 92.1856C5.8469 94.6157 6.62655 97.2879 7.16799 98.6893C6.6448 97.0678 6.17014 95.4493 5.73499 93.8045C5.56699 93.2662 5.40322 92.7238 5.24578 92.1856ZM13.4393 22.7935C13.1445 23.2874 12.1299 25.3212 12.0281 25.5372C11.8281 25.9341 11.8647 25.8167 11.8569 25.8198C10.5766 28.4344 11.808 26.0482 10.8916 27.995C10.712 28.3171 8.63911 32.9312 7.95183 34.8725C6.82888 37.8319 5.90193 40.8564 5.57816 41.9929C5.01375 43.9074 4.13634 47.5102 3.53724 50.7337C3.28839 52.064 3.16776 52.519 2.95443 53.8636C2.34578 57.6918 1.79291 63.2215 1.81977 68.8704C1.79937 75.943 2.7703 83.115 3.60548 87.3378C3.96123 89.2117 4.32173 91.0106 4.56899 91.9874C4.78008 92.7537 5.00236 93.5232 5.23383 94.2876C5.70768 96.7043 6.10877 97.4419 6.968 99.9433C7.5236 101.527 7.7511 102.278 7.82888 102.491C8.35678 103.894 8.65809 104.568 9.10917 105.651C9.61326 106.867 10.3664 108.611 10.5704 109.034C10.715 109.287 10.3074 108.454 12.6114 113.023C15.0105 117.647 17.7385 122.027 20.9036 126.277C20.0493 124.714 19.0284 123.577 17.8244 121.78C17.5032 121.298 17.7376 121.583 17.46 121.162C16.6696 119.976 15.2171 117.663 14.6451 116.63C14.0233 115.517 14.3103 115.856 13.506 114.454C13.4657 114.383 13.5561 114.627 13.3703 114.296C11.5404 110.945 11.0171 109.8 9.1395 105.351C7.40016 102.56 2.5926 83.6977 2.96873 82.9383C2.23509 79.5457 6.44169 99.5755 7.82466 101.671C8.11011 102.458 7.76914 101.647 8.0278 102.367C8.13723 102.675 9.22702 105.366 10.4182 107.986C11.787 111.178 15.0662 117.358 16.8962 120.122C32.1009 144.224 58.0891 160.793 86.3937 164.07C86.9951 164.139 87.8035 164.189 89.7612 164.358C92.4891 164.588 95.2142 164.702 97.9766 164.701C132.454 165.177 166.975 144.376 182.77 113.459C186.549 106.258 189.334 98.6217 191.236 90.6483C191.418 89.647 191.584 88.6345 191.732 87.6314C191.299 90.2043 189.975 94.78 189.833 95.1908C189.789 95.341 189.58 96.3023 189.098 97.8178C188.414 99.9497 188.024 100.847 187.966 101.021C187.775 101.555 187.949 101.223 187.764 101.732C186.361 105.534 185.116 108.409 183.46 111.737C181.56 115.479 180.388 117.261 178.857 119.909C178.639 120.181 178.42 120.451 178.199 120.72C177.292 122.854 168.962 133.673 164.799 137.334C163.548 138.543 163.717 138.277 163.293 138.679C163.009 138.921 163.233 138.948 159.777 141.91C158.018 143.38 157.5 143.693 156.599 144.404C156.107 144.787 156.226 144.776 155.511 145.318C151.362 148.43 147.773 150.704 143.309 153.122C142.051 153.794 142.01 153.749 141.727 153.898C140.683 154.438 138.9 155.447 136.158 156.646C131.695 158.741 122.296 161.678 118.33 162.372C117.75 162.492 117.254 162.535 116.831 162.621C116.189 162.751 115.946 162.858 115.833 162.88C113.668 163.278 114.962 162.988 113.508 163.249C112.72 163.383 111.919 163.588 110.086 163.832C107.662 164.137 108.122 163.988 107.115 164.1C107.008 164.11 106.982 164.173 105.985 164.261C103.679 164.461 100.754 164.609 97.9766 164.612C96.182 164.617 94.4762 164.567 93.073 164.497C92.0359 164.444 91.2677 164.362 89.8334 164.244C86.8814 164.392 70.6874 161.057 69.4927 160.296C69.3567 160.25 70.7812 160.618 68.5469 159.916C67.8897 159.738 67.2348 159.554 66.5824 159.362C65.527 158.942 64.4774 158.504 63.436 158.046C63.3919 158.278 57.2246 155.672 57.3856 155.49C56.7281 155.175 56.0722 154.85 55.4203 154.519C54.004 153.943 53.1167 153.461 50.5145 152.073C50.1342 151.813 49.7561 151.55 49.3802 151.286C49.2682 151.248 49.1562 151.211 49.0443 151.173C47.7591 150.265 45.5215 148.982 45.2631 148.805C44.2581 148.146 43.5325 147.601 43.0696 147.279C41.3263 146.094 37.6738 143.35 35.8294 141.714C35.7424 141.637 35.8639 141.67 35.338 141.208C34.3944 140.369 34.2442 140.351 33.0659 139.143C32.7997 138.93 32.5346 138.715 32.2705 138.499C32.0161 138.243 31.7632 137.985 31.5118 137.725C29.9731 136.251 28.4833 134.726 27.0453 133.153C28.4268 134.515 26.9367 132.858 25.5069 131.31C25.023 130.786 25.3934 131.302 25.2319 131.127C24.9204 130.957 19.1003 123.364 18.8691 122.75C18.599 122.386 18.3324 122.021 18.0679 121.653C17.97 121.443 17.8728 121.233 17.7765 121.023C17.63 120.821 17.4843 120.618 17.3393 120.414C15.9899 118.32 12.7447 112.736 12.2743 111.656C12.007 111.091 12.3522 111.541 11.0663 108.841C10.9873 108.763 10.9085 108.684 10.8297 108.606C10.5387 107.984 10.2542 107.358 9.97629 106.728C9.46264 105.543 8.83343 103.778 8.85594 103.704C8.68334 103.34 8.51299 102.973 8.34489 102.606C8.00665 101.575 6.13614 96.1269 5.52453 93.8839C5.37207 93.2206 5.2268 92.5562 5.08947 91.8943C4.83945 91.0196 4.60162 90.139 4.37624 89.2529C3.92637 87.1829 4.44176 89.3614 4.35267 88.9187C4.12694 87.9918 3.20853 83.2274 3.38861 83.5183C3.28795 82.866 3.19419 82.2137 3.10688 81.5582C3.03098 81.2254 2.95686 80.8917 2.88453 80.5571C2.86192 79.4087 2.55554 77.4769 2.38598 73.4366C2.34554 73.1016 2.30687 72.7658 2.27 72.4294C2.25835 71.2473 2.26786 70.0608 2.29884 68.8704C2.30048 68.8076 2.30218 68.7449 2.30394 68.6821C2.26434 68.4256 2.22582 68.1689 2.18838 67.9122C2.18747 67.369 2.19107 66.828 2.19923 66.2856C2.31101 65.1836 2.30973 63.2048 2.41892 62.2011C2.58401 60.7425 2.52812 61.8744 2.4151 64.599C2.41245 64.3926 3.0442 56.303 3.41603 54.4604C3.38563 54.5807 3.35543 54.7011 3.32545 54.8216C3.05883 56.7167 2.84896 58.6242 2.69692 60.5288C2.39582 62.114 2.8807 56.9341 3.25427 54.5716C3.28797 54.3568 3.39249 53.1186 3.84487 50.751C4.00228 49.8329 4.87327 46.2965 5.06211 45.6301C6.54267 40.228 5.29175 44.1502 7.00857 38.9435C6.5849 40.0076 7.57898 37.0167 8.76542 33.9586C8.93727 33.425 10.7379 29.0461 10.8978 28.7646C11.736 26.954 10.8584 28.9422 12.1022 26.3375C12.2398 26.0186 12.3791 25.7005 12.5202 25.3833C12.8252 24.7838 13.1364 24.1879 13.4536 23.5957C15.541 20.0907 15.9819 19.2531 16.7256 18.0073C17.0333 17.509 16.6607 18.1657 17.4722 16.8822C17.7813 16.4009 18.093 15.848 18.9607 14.5764C21.7193 10.6279 22.8465 9.43429 25.6033 5.9702C26.065 5.47095 26.5316 4.97681 27.0032 4.48766C27.2921 4.13086 27.5837 3.77607 27.8781 3.42334C29.9004 1.36775 29.6543 1.60638 29.9833 1.24201L29.4917 0.829419C29.433 0.918883 29.3507 1.03991 29.2209 1.22647C27.2228 3.94795 23.8292 9.95917 23.5497 10.4958C22.3172 13.134 20.8026 16.2652 20.3841 17.3369C20.142 17.9737 19.9069 18.6155 19.6805 19.2577C19.3818 20.0015 19.094 20.7494 18.8169 21.5022C19.0451 21.1691 17.6426 25.0754 17.5558 25.4667C17.3747 25.8947 15.8453 32.0965 15.5095 34.4528C15.0719 36.7849 14.5928 40.8954 14.578 41.2591C14.5284 41.6764 14.2425 45.7056 14.2662 48.8653C14.2662 48.9027 14.2662 48.9425 14.2662 48.9848C13.8488 52.0993 16.0409 67.8856 16.156 66.8272C15.9458 65.7745 15.6712 64.2822 15.4646 62.9796C15.168 61.1798 14.3067 55.4072 14.3357 48.9848C14.2465 41.0417 15.8752 32.2958 16.7444 29.0281C19.1591 19.12 23.5847 9.33484 29.5631 0.879694L29.9215 1.18045C28.4296 2.6801 26.993 4.22254 25.6164 5.79903C25.1419 6.34417 25.0438 6.40467 24.642 6.87709C24.0271 7.59067 22.5536 9.4719 21.9925 10.2102C19.8564 12.9394 17.5106 16.447 16.5395 18.0272C14.3513 21.5487 12.9962 24.0551 11.6108 26.8697C11.1597 27.7428 9.13023 32.2777 7.96193 35.4754C7.73702 36.0509 7.51862 36.6259 7.30502 37.2051C7.84336 35.5368 9.50343 31.2414 10.4077 29.3048C11.7202 26.4085 12.5334 24.9589 13.0769 23.9194C13.5097 23.0373 15.9666 18.6535 17.2413 16.7514C17.6276 16.1554 17.7405 16.0554 18.0768 15.5499C19.8928 12.7985 22.5186 9.33622 24.3411 7.13147C23.5652 8.00305 28.3953 2.54392 28.711 2.31534C29.0295 1.98397 29.3561 1.62224 29.8506 1.11L29.6448 0.937228C29.4736 1.18796 29.2791 1.47218 29.0527 1.80246C27.6156 3.94396 27.7162 3.62394 26.1062 6.41884C25.6813 7.09473 25.266 7.77726 24.8607 8.46584C24.8068 8.49156 20.2484 17.5095 19.5342 20.3181C19.3026 20.3019 24.7428 8.3792 25.5198 7.56425C26.6673 5.56578 28.0974 3.27531 29.7112 0.984037L29.793 1.05268C26.2016 4.64486 22.7339 8.83143 20.3432 12.102C19.1767 13.5939 15.8809 18.5502 15.6829 18.9574C15.3093 19.5779 15.6782 19.0365 15.5176 19.3048C12.3237 24.8515 13.8877 22.0688 13.4393 22.7935ZM159.457 107.397C158.182 108.872 156.86 110.304 155.492 111.693C155.586 111.588 155.68 111.482 155.774 111.376C156.399 110.739 157.015 110.091 157.62 109.436C158.081 108.928 158.537 108.415 158.986 107.896C159.144 107.73 159.301 107.564 159.457 107.397ZM162.478 103.664C163.506 102.324 163.556 102.258 163.79 101.947C164.482 101.011 165.061 100.186 165.699 99.2549C164.999 100.35 163.356 102.589 162.478 103.664ZM136.285 126.383C136.618 126.199 138.862 124.99 141.257 123.361C143.072 122.183 144.844 120.933 146.564 119.619C143.663 121.885 139.386 124.659 137.819 125.55C137.229 125.897 137.109 125.95 136.634 126.22C133.898 127.787 131.133 129.116 130.82 129.208C133.531 127.963 135.861 126.619 136.285 126.383ZM151.687 115.304C152.067 114.973 152.443 114.638 152.817 114.3C151.487 115.543 150.117 116.746 148.712 117.905C149.086 117.585 149.458 117.262 149.828 116.936C150.455 116.401 151.076 115.856 151.687 115.304ZM29.8147 98.8228C30.4449 99.7539 31.0917 100.673 31.7563 101.581C31.7286 101.525 30.9741 100.481 30.7116 100.088C30.7128 100.09 30.7141 100.091 30.7153 100.093C30.4213 99.6549 30.5613 99.8325 30.0252 99.0373C29.955 98.966 29.8848 98.8945 29.8147 98.8228ZM192.131 86.335C192.701 84.7128 193.98 70.7564 193.618 68.8704C193.607 68.6527 193.595 68.6016 193.582 68.7557C193.579 68.7857 193.577 68.8242 193.574 68.8704C193.562 69.9796 193.414 75.4664 193.228 77.13C193.091 79.472 192.017 85.7122 192.131 86.335ZM192.851 55.8756C192.812 55.5856 193.713 66.3253 193.594 67.3882C193.609 67.1643 193.643 66.819 193.645 66.5211C193.716 65.0602 193.201 58.1786 192.851 55.8756ZM15.034 39.0071C14.9025 39.872 14.7844 40.7428 14.6804 41.6128C14.7373 41.3861 14.7951 41.16 14.8539 40.9344C14.9066 40.2915 14.9667 39.648 15.034 39.0071ZM7.0971 37.8756C3.70183 47.832 1.98619 58.3507 1.99518 68.8704C1.99704 72.9009 2.24494 76.8955 2.74448 80.8865C2.5638 79.6201 2.40828 78.3456 2.27908 77.0787C2.05119 74.3777 1.93514 71.6484 1.9361 68.8704C1.91685 58.8369 3.58144 48.5945 6.46937 39.5575C6.67368 38.9942 6.88246 38.4349 7.0971 37.8756ZM132.618 128.239C129.266 129.89 126.393 131.125 122.536 132.417C126.192 131.133 127.982 130.432 131.378 128.814C131.38 128.813 131.382 128.812 131.384 128.811C131.797 128.624 132.208 128.433 132.618 128.239ZM53.3396 122.409C54.2881 123.035 55.2488 123.642 56.221 124.23C55.0632 123.505 53.9234 122.752 52.8022 121.971C52.9806 122.118 53.1598 122.264 53.3396 122.409ZM45.3501 149.367C48.5901 151.548 57.3576 156.349 60.3849 157.364C60.5763 157.433 58.8611 156.667 61.7027 157.748C59.5713 156.899 58.0882 156.227 57.9018 156.225C57.2915 155.917 56.6869 155.604 56.0831 155.283C55.0545 154.805 54.0354 154.309 53.0263 153.796C53.1698 153.785 53.0852 153.76 51.5343 152.966C50.8483 152.565 50.1678 152.157 49.4931 151.74C49.1877 151.597 48.883 151.452 48.579 151.306C48.0131 150.916 47.4486 150.518 46.8907 150.117C44.6104 148.715 45.9393 149.661 45.3501 149.367ZM34.5032 141.089C34.7318 141.829 49.4858 152.287 42.8526 147.435C41.1051 146.214 39.3975 144.934 37.7348 143.598C38.9532 144.904 34.5916 141.045 34.2685 140.692C32.5691 139.166 30.4379 137.18 29.2857 135.987C28.2917 134.964 27.7446 134.316 27.0664 133.578C24.7264 131.087 21.4016 126.834 20.9036 126.277C22.4925 128.409 24.1935 130.507 26.0284 132.574C27.9842 134.739 29.6411 136.731 33.7876 140.333C34.7909 141.246 34.3837 140.977 34.5032 141.089ZM59.1534 125.989C58.9824 126.015 65.1272 129.19 65.2051 129.132C65.2183 129.136 63.1882 128.161 62.9066 128.006C62.9047 128.005 62.9029 128.004 62.901 128.003C62.7823 127.941 63.3953 128.235 62.4545 127.752C61.3416 127.19 60.2402 126.601 59.1534 125.989ZM183.895 111.854C184.916 111.283 192.058 91.1774 191.61 90.4008C191.638 90.2325 191.554 90.4568 191.55 90.387C190.592 95.266 188.272 101.965 186.386 106.278C185.867 107.487 186.066 107.145 186.039 107.214C186.037 107.217 186.036 107.22 186.035 107.223C185.749 107.916 184.22 110.907 183.895 111.854ZM66.7684 159.762C65.9168 159.453 65.0753 159.134 64.2301 158.8C64.0035 158.749 63.7771 158.697 63.5509 158.644C63.5528 158.645 63.5548 158.646 63.5567 158.646C64.6234 159.039 65.6922 159.41 66.7684 159.762ZM97.5706 165.047C97.3491 165.022 97.1278 164.997 96.9069 164.97C94.6203 164.943 92.3498 164.835 90.0727 164.647C90.3026 164.653 90.5326 164.657 90.7628 164.661C87.342 164.358 85.9007 164.232 84.0914 163.969C84.0935 163.969 84.0955 163.969 84.0976 163.97C83.9017 163.94 83.6771 163.86 82.9479 163.745C81.2695 163.514 76.55 162.525 75.9744 162.411C74.7258 162.312 84.2894 164.188 86.1006 164.273C86.9132 164.376 87.8962 164.524 88.3905 164.573C88.9322 164.627 89.6748 164.642 91.0023 164.74C91.3948 164.789 95.6905 165.078 97.5706 165.047ZM136.701 156.848C136.034 157.082 134.704 157.704 134.201 157.896C134.081 157.942 134.989 157.52 133.861 157.964C133.554 158.123 133.247 158.28 132.939 158.435C134.205 157.933 135.455 157.405 136.701 156.848ZM69.624 130.992C69.433 130.936 66.0151 129.487 65.861 129.397C63.8045 128.548 70.87 131.582 69.624 130.992ZM155.638 111.313C154.759 112.812 167.654 97.1931 168.194 95.1661C168.179 95.2719 165.545 99.3049 166.938 97.2008C165.677 99.2561 161.7 104.594 160.65 105.761C160.041 106.491 159.872 106.661 159.779 106.77C159.438 107.222 156.092 110.914 155.638 111.313ZM175.568 80.1794C174.88 81.9744 174.134 83.7514 173.333 85.4985C174.274 83.4343 175.139 81.3329 175.922 79.2027C175.806 79.529 175.688 79.8545 175.568 80.1794ZM176.395 77.9048C176.41 77.9757 178.396 71.7557 178.744 70.0678C178.297 71.953 177.4 75.0561 176.395 77.9048ZM93.5615 136.21C90.5544 135.991 89.2645 135.942 92.9154 136.2C93.0267 136.206 93.6872 136.219 93.5615 136.21ZM45.9464 150.157C46.3498 150.482 51.8259 153.796 52.1983 153.894C53.285 154.347 49.5725 152.379 48.4071 151.592C46.5201 150.334 49.3516 152.087 44.6825 149.126C44.8842 149.231 45.0864 149.335 45.2888 149.438C42.6032 147.64 43.3947 148.352 42.9009 148.045C42.7478 147.953 41.1083 146.763 40.8115 146.55C37.0487 143.953 45.4735 150.007 45.9464 150.157ZM31.2089 100.298C27.8794 95.3285 29.2039 97.532 26.0961 92.2346C25.8866 92.117 30.6457 99.7416 31.2089 100.298ZM9.00718 106.006C11.433 111.714 13.7989 116.267 16.9946 121.09C16.5343 120.91 8.10178 104.667 9.00718 106.006ZM190.98 42.325C193.205 50.6124 194.468 59.6344 194.424 68.8704C194.439 85.7089 189.743 103.136 181.29 117.449C179.865 119.858 179.632 120.034 179.099 120.895C178.743 121.455 178.858 121.391 178.371 122.127C160.757 148.844 130.609 164.887 100.019 165.291C99.6179 165.299 98.8936 165.306 97.9766 165.3C94.4858 165.329 88.3264 164.811 86.7322 164.712C85.2128 164.69 91.9162 165.275 93.0529 165.269C93.8911 165.311 93.9249 165.369 94.4856 165.391C95.0811 165.412 94.5902 165.356 95.2821 165.376C96.1606 165.399 97.066 165.414 97.9766 165.416C100.11 165.421 102.217 165.356 104.084 165.237C130.1 163.655 154.543 151.335 171.382 131.636C173.407 129.241 173.014 129.754 173.12 129.636C173.122 129.635 173.123 129.633 173.124 129.631C183.854 116.649 191.792 98.4184 193.851 80.7015C194.345 76.7742 194.598 72.8397 194.613 68.8704C194.648 60.2738 193.548 51.6749 191.316 43.3635C191.206 43.0164 191.094 42.6711 190.98 42.325ZM35.4074 142.135C36.5111 143.248 36.8064 143.444 41.2598 146.842C41.6443 147.088 42.0305 147.332 42.4183 147.572C39.9983 145.868 37.655 144.05 35.4003 142.129C35.4026 142.131 35.405 142.133 35.4074 142.135ZM67.3634 160.324C68.1417 161.003 80.3142 164.17 85.9632 164.667C86.9955 164.733 78.8768 163.573 77.0038 163.039C76.0546 162.842 71.0592 161.508 67.3201 160.285C67.3345 160.298 67.349 160.311 67.3634 160.324ZM139.107 124.45C138.334 124.928 137.553 125.393 136.764 125.845C138.743 124.723 140.676 123.519 142.557 122.239C139.559 124.286 136.429 126.14 133.19 127.778C133.788 127.461 134.381 127.137 134.97 126.806C136.372 126.061 137.751 125.275 139.107 124.45ZM128.676 129.888C134.458 127.255 128.457 130.082 126.96 130.621C126.075 130.968 128.084 130.153 128.676 129.888ZM112.925 134.779C115.84 134.245 121.584 132.535 119.553 133.179C116.468 134.027 114.472 134.583 109.887 135.325C110.552 135.211 111.221 135.087 111.887 134.955C111.89 134.954 111.893 134.953 111.896 134.953C112.24 134.897 112.583 134.84 112.925 134.779ZM131.308 128.665C135.107 126.966 124.103 131.871 127.562 130.329C127.735 130.28 131.167 128.755 131.308 128.665ZM194.882 68.7542C194.867 68.6488 194.855 68.7053 194.846 68.8704C194.816 69.5029 194.778 71.7064 194.735 72.5513C194.56 77.2022 193.908 83.1353 192.926 87.8754C193.02 87.5239 193.112 87.1715 193.202 86.8181C194.317 80.9066 194.876 74.8903 194.882 68.8704C194.882 68.8317 194.882 68.7929 194.882 68.7542ZM188.809 102.414C187.653 105.533 186.339 108.586 184.869 111.565C184.735 111.844 184.13 113.167 184.63 112.208C186.203 109.022 187.597 105.755 188.809 102.414ZM20.888 127.15C22.3832 129.211 17.9156 123.399 18.2729 123.55C19.1176 124.771 19.9888 125.97 20.888 127.15ZM9.00763 106.75C9.64575 108.216 10.3182 109.66 11.0266 111.088C11.0125 111.097 10.9984 111.107 10.9843 111.116C10.2896 109.678 9.63134 108.224 9.00763 106.75ZM194.061 55.7115C194.217 57.4008 194.637 61.4189 194.738 63.9387C194.748 62.1975 194.363 58.0757 194.061 55.7115ZM49.1321 152.381C48.919 152.342 57.8956 157.021 54.7461 155.483C52.8402 154.511 50.9682 153.476 49.1321 152.381ZM67.8181 160.897C65.7473 160.227 64.1853 159.613 64.6264 159.704C65.7041 160.104 66.7893 160.485 67.8841 160.848C67.8621 160.864 67.8401 160.881 67.8181 160.897ZM101.741 136.11C100.493 136.171 99.238 136.202 97.9766 136.202C95.5855 136.2 93.221 136.089 90.8497 135.867C90.9841 135.873 91.1186 135.878 91.2532 135.884C93.494 136.082 95.72 136.181 97.9766 136.183C99.2419 136.183 100.501 136.153 101.752 136.091C101.748 136.098 101.745 136.104 101.741 136.11ZM193.993 53.6226C193.587 51.1322 193.082 48.6526 192.482 46.2016C193.049 48.6628 193.52 51.1497 193.892 53.6449C193.926 53.6395 193.96 53.6342 193.995 53.6288C193.994 53.6267 193.994 53.6246 193.993 53.6226ZM147.412 118.498C138.517 125.132 149.934 116.749 151.965 114.607C151.967 114.605 151.97 114.603 151.972 114.601C152.163 114.43 151.771 114.805 152.09 114.521C151.253 115.279 150.401 116.021 149.535 116.746C148.753 117.418 147.961 118.074 147.155 118.718C146.886 118.926 146.617 119.132 146.346 119.336C146.703 119.06 147.059 118.78 147.412 118.498ZM174.219 83.1718C177.887 73.7923 174.368 83.4921 172.044 87.914C172.076 87.8893 173.881 84.0375 174.219 83.1718ZM160.539 105.625C159.53 106.846 158.486 108.044 157.413 109.211C157.273 109.357 157.133 109.503 156.992 109.649C157.821 108.758 158.632 107.85 159.425 106.925C159.801 106.495 160.172 106.062 160.539 105.625ZM117.518 133.522C115.04 134.112 111.924 135.046 119.821 132.914C119.816 132.91 119.81 132.906 119.805 132.902C119.493 132.997 118.571 133.263 118.522 133.275C118.377 133.312 118.543 133.252 117.518 133.522ZM179.627 65.3679C179.673 65.0845 179.72 64.938 180.221 61.9957C180.358 61.1051 180.481 60.2147 180.591 59.3196C180.624 59.089 180.657 58.8582 180.688 58.6271C180.261 62.0896 180.155 62.4466 180.126 62.6985C179.936 63.8432 180.074 62.9956 179.946 63.7331C179.642 65.6389 178.645 69.9176 179.076 67.9734C179.234 67.275 179.577 65.6481 179.627 65.3679ZM178.041 71.9977C178.158 71.5912 177.796 72.9044 177.885 72.5977C177.988 72.3365 179.034 68.2645 178.765 69.3699C178.6 70.0386 178.427 70.7088 178.247 71.3751C178.182 71.6001 178.117 71.8247 178.051 72.0491C177.875 72.6936 177.691 73.3358 177.501 73.9756C177.169 75.0527 176.413 77.3267 177.275 74.6142C176.964 75.6138 176.636 76.607 176.291 77.5932C176.117 78.105 175.937 78.6173 175.753 79.127C175.845 78.8582 175.936 78.5889 176.025 78.3192C176.775 76.24 177.449 74.1273 178.041 71.9977ZM180.768 39.868C180.783 39.9945 180.799 40.1211 180.813 40.2478C180.475 36.4138 179.269 30.5411 179.922 33.8798C180.824 38.8621 181.267 43.9225 181.257 48.9848C181.257 49.1319 181.256 49.279 181.255 49.4261C181.251 49.7727 181.244 50.119 181.236 50.465C181.249 49.8616 181.252 49.3801 181.253 48.9848C181.237 46.8384 181.244 47.2529 181.126 44.4003C181.088 43.8322 181.226 45.4801 180.964 41.9081C180.973 42.0354 180.981 42.1628 180.989 42.2902C180.927 41.4804 180.853 40.6752 180.768 39.868ZM170.897 8.54314C173.977 14.3672 170.625 7.9296 169.966 6.90368C169.967 6.90548 169.968 6.9073 169.969 6.9091C168.293 4.02712 171.888 10.2298 172.025 10.6539C172.284 11.1737 172.94 12.3618 174.219 15.2535C173.213 12.9685 172.104 10.729 170.897 8.54314ZM178.752 28.4952C178.617 27.9592 178.694 28.2555 178.635 28.0241C178.634 28.0221 178.634 28.0201 178.633 28.0181C177.879 24.5641 174.942 16.6977 174.502 15.8968C175.756 18.2151 179.182 29.3915 179.147 30.1284C179.021 29.5835 178.889 29.0379 178.752 28.4952ZM181.138 53.0835C181.019 55.2409 181.271 50.3871 181.241 49.1024C181.241 48.8603 181.262 50.8523 181.138 53.0835ZM63.0588 127.33C58.8613 125.15 64.3554 128.056 62.4351 127.085C63.238 127.5 64.0479 127.902 64.8647 128.29C64.2582 127.977 63.6562 127.658 63.0588 127.33ZM0.633535 62.4384C0.552995 63.5617 0.624871 63.0316 0.618707 63.1291C0.572249 63.8692 0.51058 64.5617 0.501487 64.8457C0.399568 70.0919 0.536789 66.6033 0.539623 66.553C0.579128 66.4431 0.583641 67.8197 0.677803 65.9145C0.702528 64.7554 0.747498 63.6012 0.813221 62.4437C0.871903 61.8718 0.935381 61.3022 1.00406 60.7299C1.16836 58.4354 0.882622 61.4329 0.809908 61.7694C0.777799 61.9001 0.914682 59.7377 0.633535 62.4384ZM55.7568 123.042C55.0942 122.656 53.5128 121.64 55.0284 122.694C55.0302 122.695 55.0319 122.697 55.0336 122.698C55.3135 122.894 56.4812 123.65 56.841 123.88C59.4686 125.424 58.4686 124.815 55.7568 123.042ZM4.13677 41.9625C4.67139 40.1676 5.25681 38.3915 5.89384 36.6314C5.91667 36.6731 5.93953 36.7148 5.96242 36.7564C5.62079 37.6976 5.29472 38.641 4.98222 39.5925C4.89133 39.9323 4.80274 40.2712 4.71592 40.611C5.11774 39.4363 5.54171 38.2696 5.98763 37.1115C6.46511 35.6967 6.97589 34.2921 7.51885 32.9008C7.2457 33.5322 6.9801 34.164 6.72024 34.801C8.02222 31.3877 7.81219 32.1592 9.04771 29.4029C9.44058 28.4463 9.84965 27.4946 10.2738 26.5505C10.9589 25.2166 11.6742 23.8996 12.4184 22.6011C13.6219 20.3918 13.7265 20.1967 12.8574 21.6509C13.4325 20.5389 14.1788 19.3862 14.9551 18.0952C15.0192 17.9887 14.8634 18.1681 14.9207 18.0742C19.0926 11.4882 19.1289 12.0159 19.8288 10.9903C20.341 10.2775 22.4661 7.49075 22.4948 7.44203C22.5427 7.39101 17.7275 12.8888 25.1096 4.15506C21.067 8.48611 17.2954 14.0796 19.95 10.6335C18.734 12.0633 14.2442 18.9833 14.0426 19.4762C13.6482 20.1333 13.7414 19.8768 13.2601 20.7081C12.9907 21.208 12.275 22.5291 10.1995 26.5146C9.9644 27.039 9.73463 27.5642 9.50915 28.0925C9.26853 28.574 9.03175 29.0577 8.79923 29.5428C9.20006 28.5096 9.62038 27.4806 10.0581 26.4603C8.18618 30.4358 6.75399 33.7984 5.94163 36.3514C5.15736 38.5305 4.82486 39.6038 5.08172 38.6418C4.86446 39.3021 4.65378 39.9666 4.45105 40.6306C4.34314 41.0736 4.23837 41.5176 4.13677 41.9625ZM44.7398 114.609C43.1013 113.069 42.4883 112.537 42.7338 112.788C44.1381 114.178 45.6002 115.403 44.7398 114.609ZM1.07134 58.2896C1.38218 55.7765 1.79104 53.2709 2.29579 50.7909C2.25768 50.7837 2.21957 50.7766 2.18146 50.7694C1.71358 53.2595 1.34295 55.7723 1.07134 58.2896ZM63.696 127.601C63.8935 127.717 64.0916 127.831 64.2902 127.945C66.7542 129.097 69.2233 130.197 70.4834 130.663C70.7566 130.765 70.2161 130.53 69.7027 130.318C69.361 130.234 64.1064 127.86 63.696 127.601ZM164.168 100.673C163.575 101.501 162.969 102.318 162.35 103.125C162.378 103.075 162.406 103.026 162.433 102.976C162.739 102.578 163.042 102.177 163.341 101.774C163.619 101.409 163.895 101.042 164.168 100.673ZM156.815 109.603C155.57 110.926 154.289 112.208 152.967 113.451C157.904 108.606 153.875 112.606 156.795 109.585C156.802 109.591 156.808 109.597 156.815 109.603ZM142.932 121.56C143.112 121.428 143.291 121.296 143.469 121.162C144.951 120.119 146.399 119.028 147.812 117.892C146.906 118.594 145.985 119.278 145.052 119.941C144.518 120.336 143.98 120.724 143.437 121.106C143.269 121.258 143.101 121.409 142.932 121.56ZM9.62896 111.026C10.0872 112.051 11.939 115.478 11.8947 115.311C11.1585 113.873 10.4563 112.415 9.79133 110.942C9.74809 110.954 9.70486 110.966 9.66161 110.979C9.58384 110.763 9.50678 110.547 9.43049 110.331C9.02811 109.505 8.63702 108.673 8.25742 107.834C8.10916 107.393 7.96327 106.949 7.82214 106.508C7.6039 106.096 7.38851 105.682 7.17599 105.266C8.77884 109.406 8.86125 109.21 9.22914 110.055C9.42495 110.481 9.52666 110.76 9.58505 110.917C9.59966 110.953 9.61431 110.99 9.62896 111.026ZM1.03102 56.5203C0.367566 61.7756 0.357508 64.8144 0.224085 68.643C0.120694 66.178 1.48625 50.3304 3.38999 45.0069C3.50479 44.4395 3.62594 43.8687 3.7516 43.302C2.97473 46.2449 2.48013 48.2968 2.1746 49.7508C1.93719 50.9057 1.9956 50.792 1.97718 50.8802C1.97639 50.8844 1.9756 50.8886 1.97481 50.8927C1.46107 53.6059 1.31461 54.4478 1.03102 56.5203ZM67.2036 129.17C65.9385 128.598 63.7544 127.53 63.7173 127.544C64.9229 128.159 66.1448 128.743 67.3801 129.295C67.1291 129.175 67.419 129.27 67.2036 129.17ZM141.151 122.688C140.244 123.288 138.052 124.631 139.008 124.069C139.184 123.975 141.336 122.588 140.088 123.424C142.186 122.073 141.667 122.347 141.151 122.688ZM19.3434 24.5692C19.0727 25.4373 18.817 26.3084 18.5757 27.1841C18.5401 27.3937 18.5053 27.6034 18.4712 27.8133C18.7397 26.7267 19.0304 25.6454 19.3434 24.5692ZM78.2486 133.069C79.4002 133.45 81.4291 133.902 83.6513 134.386C84.4765 134.547 85.3111 134.696 86.1371 134.83C86.1391 134.83 86.1412 134.83 86.1432 134.831C86.1683 134.818 86.1934 134.805 86.2184 134.792C83.5323 134.36 80.8718 133.785 78.2486 133.069ZM10.4073 25.8586C10.6771 25.3506 10.9507 24.8461 11.2293 24.3429C11.6839 23.4259 12.1522 22.5176 12.6359 21.6151C12.3544 22.0918 12.0765 22.5715 11.8031 23.0527C11.3227 23.9804 10.8572 24.9162 10.4073 25.8586ZM92.7961 135.546C89.8623 135.299 88.7591 135.232 92.5068 135.569C94.099 135.683 95.8718 135.74 92.7961 135.546ZM47.8722 153.115C46.9927 152.573 46.1175 152.013 45.2546 151.442C44.9416 151.278 44.6295 151.111 44.3183 150.942C45.4865 151.691 46.6743 152.418 47.8722 153.115ZM152.179 114.091C152.096 114.177 152.014 114.262 151.931 114.348C151.263 114.955 150.586 115.551 149.899 116.138C150.067 115.984 150.234 115.831 150.4 115.676C151.001 115.156 151.593 114.628 152.179 114.091ZM42.0423 149.305C41.368 148.825 40.7002 148.336 40.039 147.84C39.5837 147.522 39.1308 147.199 38.6804 146.872C39.2866 147.356 39.8973 147.831 40.5144 148.299C41.0205 148.639 41.5299 148.974 42.0423 149.305ZM120.38 132.452C119.295 132.795 114.929 133.973 118.868 132.927C121.37 132.209 120.541 132.399 120.38 132.452ZM126.148 130.441C122.086 131.906 125.219 131.032 129.909 128.876C125.153 130.952 126.374 130.326 126.148 130.441ZM157.177 109.04C157.25 108.96 157.322 108.904 157.907 108.261C160.025 105.954 162.6 102.717 163.908 100.898C167.464 96.7744 174.903 81.9888 175.294 80.0547C175.443 79.6813 175.123 80.5496 175.182 80.3972C175.369 79.9557 176.308 77.3552 176.141 77.8388C175.233 80.3948 174.21 82.9072 173.077 85.368C173.348 84.7609 173.613 84.1506 173.87 83.5373C171.082 89.6847 171.948 87.6237 171.109 89.3734C170.575 90.3837 170.02 91.3838 169.448 92.3717C168.222 94.5352 166.908 96.6475 165.51 98.7046C165.823 98.2361 166.133 97.7646 166.438 97.2903C164.339 100.394 164.916 99.5246 163.731 101.199C163.723 101.198 163.716 101.198 163.709 101.198C161.561 104.106 161.056 104.607 160.563 105.223C159.508 106.445 158.334 108.181 153.875 112.462C152.021 114.292 151.995 114.178 150.884 115.229C147.522 118.08 153.921 112.657 156.574 109.694C156.575 109.692 156.576 109.691 156.578 109.689C156.783 109.471 156.454 109.814 157.177 109.04ZM139.859 123.505C142.134 122.123 133.059 127.449 136.101 125.754C136.555 125.503 137.006 125.247 137.456 124.987C138.267 124.506 139.07 124.011 139.864 123.502C139.862 123.503 139.861 123.504 139.859 123.505ZM47.9403 117.112C40.621 110.731 44.7101 114.437 47.2302 116.557C47.7368 116.974 48.022 117.194 47.9403 117.112ZM0.248899 64.0512C0.2569 64.1971 0.265236 64.343 0.273907 64.489C0.353561 61.1428 1.23756 54.7327 1.15633 54.8117C0.708167 57.8747 0.405841 60.9591 0.248899 64.0512ZM5.09561 38.1198C4.84944 38.7945 3.97324 41.5965 4.11725 41.2696C4.50517 40.059 4.91737 38.8538 5.35148 37.6612C5.52704 37.0953 5.70779 36.5312 5.89356 35.9694C5.60537 36.7434 5.15728 37.9362 5.09561 38.1198Z" fill="#E0FDFF"/>
</svg>
