<svg viewBox="0 0 24 90" fill="none" xmlns="http://www.w3.org/2000/svg">
<path d="M23.2783 74C23.7352 75.2595 24 76.6771 24 78.0928C24 84.669 18.6274 90 12 90C5.37258 90 0 84.669 0 78.0928C0 76.6771 0.264785 75.2595 0.72168 74C0.711444 74.1956 0.706055 74.3927 0.706055 74.5908C0.706148 80.7801 5.76249 85.7979 12 85.7979C18.2375 85.7979 23.2939 80.7801 23.2939 74.5908C23.2939 74.3927 23.2886 74.1956 23.2783 74ZM12 59.5C13 62.5 15.5 64 17 64.5C15.5 65 13 66.5 12 69.5C11 66.5 8.5 65 7 64.5C8.5 64 11 62.5 12 59.5ZM12 34.5C17.5228 34.5 22 38.9772 22 44.5C22 50.0228 17.5228 54.5 12 54.5C6.47715 54.5 2 50.0228 2 44.5C2 38.9772 6.47715 34.5 12 34.5ZM11 19.5C12 22.5 14.5 24 16 24.5C14.5 25 12 26.5 11 29.5C10 26.5 7.5 25 6 24.5C7.5 24 10 22.5 11 19.5ZM12 0C18.6274 0 24 5.33105 24 11.9072C24 13.3229 23.7352 14.7405 23.2783 16C23.2886 15.8044 23.2939 15.6073 23.2939 15.4092C23.2939 9.21991 18.2375 4.20215 12 4.20215C5.76249 4.20215 0.706148 9.21991 0.706055 15.4092C0.706055 15.6073 0.711444 15.8044 0.72168 16C0.264786 14.7405 1.18742e-07 13.3229 0 11.9072C0 5.33105 5.37258 0 12 0Z" fill="url(#paint0_linear_1608_426)"/>
<defs>
<linearGradient id="paint0_linear_1608_426" x1="12" y1="8" x2="12" y2="90" gradientUnits="userSpaceOnUse">
<stop offset="0.112603" stop-color="var(--moon-gradient-1)"/>
<stop offset="0.47404" stop-color="var(--moon-gradient-2)"/>
<stop offset="0.943274" stop-color="var(--moon-gradient-1)"/>
</linearGradient>
</defs>
</svg>
