<svg viewBox="0 0 64 74" fill="none" xmlns="http://www.w3.org/2000/svg">
<path d="M14.4142 12.1572C13.4714 13.1 12.5286 14.0428 11.5858 14.9856C11.739 15.1388 11.8922 15.2921 12.0454 15.4453C14.8031 18.203 17.5608 20.9607 20.3186 23.7184C20.4718 23.8716 20.625 24.0248 20.7782 24.178C21.721 23.2352 22.6638 22.2924 23.6066 21.3496C23.4534 21.1964 23.3002 21.0432 23.147 20.89C20.3893 18.1323 17.6315 15.3745 14.8738 12.6168C14.7206 12.4636 14.5674 12.3104 14.4142 12.1572Z" fill="url(#paint0_linear_863_150)"/>
<path d="M42.7482 39.9193C41.8054 40.8621 40.8626 41.8049 39.9198 42.7477C40.073 42.9009 40.2262 43.0541 40.3794 43.2073C43.1371 45.965 45.8948 48.7228 48.6525 51.4805C48.8057 51.6337 48.959 51.7869 49.1122 51.9401C50.055 50.9973 50.9978 50.0545 51.9406 49.1117C51.7874 48.9585 51.6342 48.8052 51.481 48.652C48.7232 45.8943 45.9655 43.1366 43.2078 40.3789C43.0546 40.2257 42.9014 40.0725 42.7482 39.9193Z" fill="url(#paint1_linear_863_150)"/>
<circle cx="32" cy="31.75" r="12" stroke="url(#paint2_radial_863_150)" stroke-width="4"/>
<path d="M11.5858 48.3496C12.5286 49.2924 13.4714 50.2352 14.4142 51.178C14.5674 51.0248 14.7206 50.8716 14.8738 50.7184C17.6315 47.9607 20.3893 45.203 23.147 42.4453C23.3002 42.292 23.4534 42.1388 23.6066 41.9856C22.6638 41.0428 21.721 40.1 20.7782 39.1572C20.625 39.3104 20.4718 39.4636 20.3186 39.6168C17.5608 42.3745 14.8031 45.1323 12.0454 47.89C11.8922 48.0432 11.739 48.1964 11.5858 48.3496Z" fill="url(#paint3_linear_863_150)"/>
<path d="M39.9198 20.783C40.8626 21.7258 41.8054 22.6686 42.7482 23.6114C42.9014 23.4582 43.0546 23.305 43.2078 23.1518C45.9655 20.3941 48.7232 17.6364 51.481 14.8786C51.6342 14.7254 51.7874 14.5722 51.9406 14.419C50.9978 13.4762 50.055 12.5334 49.1122 11.5906C48.959 11.7438 48.8057 11.897 48.6525 12.0502C45.8948 14.8079 43.1371 17.5657 40.3794 20.3234C40.2262 20.4766 40.073 20.6298 39.9198 20.783Z" fill="url(#paint4_linear_863_150)"/>
<g clip-path="url(#clip0_863_150)">
<path d="M63.6338 31.942C63.6338 31.8586 63.6338 31.7753 63.6338 31.692C63.329 31.644 63.0243 31.5961 62.7195 31.5482C57.2338 30.6857 51.7481 29.8232 46.2624 28.9607C45.9576 28.9128 45.6528 28.8649 45.3481 28.817C45.3481 30.817 45.3481 32.817 45.3481 34.817C45.6528 34.769 45.9576 34.7211 46.2624 34.6732C51.7481 33.8107 57.2338 32.9482 62.7195 32.0857C63.0243 32.0378 63.329 31.9899 63.6338 31.942Z" fill="url(#paint5_linear_863_150)"/>
<path d="M0 31.692C0 31.7753 0 31.8586 0 31.942C0.304762 31.9899 0.609524 32.0378 0.914286 32.0857C6.4 32.9482 11.8857 33.8107 17.3714 34.6732C17.6762 34.7211 17.981 34.769 18.2857 34.817C18.2857 32.817 18.2857 30.817 18.2857 28.817C17.981 28.8649 17.6762 28.9128 17.3714 28.9607C11.8857 29.8232 6.4 30.6857 0.914286 31.5482C0.609524 31.5961 0.304762 31.644 0 31.692Z" fill="url(#paint6_linear_863_150)"/>
<path d="M31.6919 72.777C31.7752 72.777 31.8586 72.777 31.9419 72.777C31.9898 72.3199 32.0377 71.8627 32.0856 71.4056C32.5865 66.6275 33.0873 61.8495 33.5881 57.0714C33.9498 53.6209 34.3115 50.1704 34.6731 46.7199C34.7211 46.2627 34.769 45.8056 34.8169 45.3484C32.8169 45.3484 30.8169 45.3484 28.8169 45.3484C28.8648 45.8056 28.9127 46.2627 28.9606 46.7199C29.3223 50.1704 29.684 53.6209 30.0457 57.0714C30.5465 61.8495 31.0473 66.6275 31.5481 71.4056C31.5961 71.8627 31.644 72.3199 31.6919 72.777Z" fill="url(#paint7_linear_863_150)"/>
<path d="M31.9419 -0.000228882C31.8586 -0.000228882 31.7752 -0.000228882 31.6919 -0.000228882C31.644 0.304533 31.5961 0.609295 31.5481 0.914057C30.6856 6.39977 29.8231 11.8855 28.9606 17.3712C28.9127 17.676 28.8648 17.9807 28.8169 18.2855C30.8169 18.2855 32.8169 18.2855 34.8169 18.2855C34.769 17.9807 34.7211 17.676 34.6731 17.3712C33.8106 11.8855 32.9481 6.39977 32.0856 0.914057C32.0377 0.609295 31.9898 0.304533 31.9419 -0.000228882Z" fill="url(#paint8_linear_863_150)"/>
</g>
<defs>
<linearGradient id="paint0_linear_863_150" x1="21" y1="21.5714" x2="14" y2="14.5714" gradientUnits="userSpaceOnUse">
<stop stop-color="var(--sun-cta-gradient-2)"/>
<stop offset="1" stop-color="var(--sun-cta)"/>
</linearGradient>
<linearGradient id="paint1_linear_863_150" x1="42" y1="42.0714" x2="49" y2="49.0714" gradientUnits="userSpaceOnUse">
<stop stop-color="var(--sun-cta-gradient-2)"/>
<stop offset="1" stop-color="var(--sun-cta)"/>
</linearGradient>
<radialGradient id="paint2_radial_863_150" cx="0" cy="0" r="1" gradientUnits="userSpaceOnUse" gradientTransform="translate(32 31.75) rotate(-126.384) scale(0.842889)">
<stop stop-color="var(--sun-cta-gradient-2)"/>
</radialGradient>
<linearGradient id="paint3_linear_863_150" x1="21" y1="41.5714" x2="14.5" y2="48.5714" gradientUnits="userSpaceOnUse">
<stop stop-color="var(--sun-cta-gradient-2)"/>
<stop offset="1" stop-color="var(--sun-cta)"/>
</linearGradient>
<linearGradient id="paint4_linear_863_150" x1="43" y1="20.5714" x2="50" y2="14.0714" gradientUnits="userSpaceOnUse">
<stop stop-color="var(--sun-cta-gradient-2)"/>
<stop offset="1" stop-color="var(--sun-cta)"/>
</linearGradient>
<linearGradient id="paint5_linear_863_150" x1="63.5" y1="31.5714" x2="48.5" y2="31.5714" gradientUnits="userSpaceOnUse">
<stop stop-color="var(--sun-cta)"/>
<stop offset="1" stop-color="var(--sun-cta-gradient-2)"/>
</linearGradient>
<linearGradient id="paint6_linear_863_150" x1="0.5" y1="31.5714" x2="15" y2="31.5714" gradientUnits="userSpaceOnUse">
<stop stop-color="var(--sun-cta)"/>
<stop offset="1" stop-color="var(--sun-cta-gradient-2)"/>
</linearGradient>
<linearGradient id="paint7_linear_863_150" x1="32" y1="61.0714" x2="32" y2="51.0714" gradientUnits="userSpaceOnUse">
<stop stop-color="var(--sun-cta)"/>
<stop offset="1" stop-color="var(--sun-cta-gradient-2)"/>
</linearGradient>
<linearGradient id="paint8_linear_863_150" x1="32" y1="5.07143" x2="32" y2="16.0714" gradientUnits="userSpaceOnUse">
<stop stop-color="var(--sun-cta)"/>
<stop offset="1" stop-color="var(--sun-cta-gradient-2)"/>
</linearGradient>
<clipPath id="clip0_863_150">
<rect width="64" height="73.14" fill="white"/>
</clipPath>
</defs>
</svg>
