<svg viewBox="0 0 64 74" fill="none" xmlns="http://www.w3.org/2000/svg">
<path d="M32.0859 0.914062C32.9484 6.39958 33.8114 11.8856 34.6738 17.3711C34.7081 17.589 34.7422 17.8073 34.7764 18.0254C36.7945 18.4314 38.6553 19.2718 40.2578 20.4443L49.1123 11.5908L51.9404 14.4189L43.1172 23.2412C44.368 24.873 45.2675 26.7876 45.7031 28.873C45.8897 28.9023 46.0764 28.9316 46.2627 28.9609C51.7483 29.8234 57.2341 30.6863 62.7197 31.5488C63.0244 31.5967 63.3291 31.6445 63.6338 31.6924V31.9424C63.3291 31.9903 63.0244 32.038 62.7197 32.0859C57.2341 32.9484 51.7483 33.8113 46.2627 34.6738C46.0663 34.7047 45.8695 34.7348 45.6729 34.7656C45.2253 36.8043 44.333 38.6753 43.1035 40.2744L51.9404 49.1113L49.1123 51.9404L40.2393 43.0674C38.6483 44.2276 36.8045 45.0621 34.8047 45.4688C34.761 45.8856 34.7175 46.3029 34.6738 46.7197C34.3122 50.17 33.9505 53.621 33.5889 57.0713C33.0881 61.8492 32.5868 66.6283 32.0859 71.4062C32.038 71.8632 31.9903 72.3204 31.9424 72.7773H31.6924C31.6445 72.3204 31.5967 71.8631 31.5488 71.4062C31.048 66.6283 30.5467 61.8492 30.0459 57.0713C29.6843 53.6211 29.3226 50.17 28.9609 46.7197C28.9144 46.2756 28.8678 45.8309 28.8213 45.3867C26.6695 44.8871 24.7086 43.8912 23.0645 42.5264L14.4141 51.1777L11.5859 48.3496L20.377 39.5576C19.3792 38.0752 18.658 36.3913 18.2861 34.5801V34.8174C17.9814 34.7695 17.6758 34.7217 17.3711 34.6738C11.8855 33.8113 6.39966 32.9484 0.914062 32.0859C0.609405 32.038 0.304658 31.9903 0 31.9424V31.6924C0.304658 31.6445 0.609405 31.5967 0.914062 31.5488C6.39966 30.6863 11.8855 29.8234 17.3711 28.9609C17.6758 28.913 17.9814 28.8653 18.2861 28.8174V28.9189C18.6663 27.0677 19.412 25.3497 20.4443 23.8438L11.5859 14.9854L14.4141 12.1572L23.1553 20.8984C24.7867 19.5671 26.7232 18.5951 28.8447 18.1064C28.8832 17.8613 28.9224 17.616 28.9609 17.3711C29.8234 11.8855 30.6864 6.39963 31.5488 0.914062C31.5967 0.609433 31.6445 0.30463 31.6924 0H31.9424C31.9903 0.30458 32.038 0.609482 32.0859 0.914062ZM32 21.75C26.4772 21.75 22 26.2272 22 31.75C22 37.2728 26.4772 41.75 32 41.75C37.5228 41.75 42 37.2728 42 31.75C42 26.2272 37.5228 21.75 32 21.75Z" fill="url(#paint0_radial_1672_258)"/>
<defs>
<radialGradient id="paint0_radial_1672_258" cx="50%" cy="50%" r="40%" gradientUnits="userSpaceOnUse">
<stop stop-color="var(--sun)"/>
<stop offset="1" stop-color="var(--sun-cta-gradient-2)"/>
</radialGradient>
</defs>
</svg>
