<svg viewBox="0 0 58 39" fill="none" xmlns="http://www.w3.org/2000/svg">
<mask id="path-1-inside-1_564_254" fill="white">
<path d="M40.3454 26.5C40.3454 29.625 36.0885 32.7498 34.375 32.75C36.0885 32.7498 40.3508 35.8748 40.3454 39C40.3508 35.8748 55.7865 32.7498 57.5 32.75C55.7865 32.75 40.3454 29.625 40.3454 26.5Z"/>
</mask>
<path d="M40.3454 26.5C40.3454 29.625 36.0885 32.7498 34.375 32.75C36.0885 32.7498 40.3508 35.8748 40.3454 39C40.3508 35.8748 55.7865 32.7498 57.5 32.75C55.7865 32.75 40.3454 29.625 40.3454 26.5Z" fill="url(#paint0_linear_564_254)"/>
<path d="M34.3749 31.5C34.375 32.3333 34.375 33.1667 34.3751 34C35.9677 33.8762 36.7259 33.2664 37.6329 32.6917C39.5125 31.291 41.439 29.491 41.5954 26.5C41.5954 25 39.0954 25 39.0954 26.5C39.1198 27.4745 39.6219 28.0283 39.9846 28.4124C40.3809 28.8071 40.76 29.0698 41.1571 29.321C41.9286 29.7996 42.7019 30.1548 43.4744 30.4783C43.4744 30.4783 43.4744 30.4783 43.4744 30.4783C48.0726 32.2522 52.3833 33.3559 57.5 34C59 34 59.0001 31.5001 57.5001 31.5C53.9499 31.8728 51.1083 32.6342 47.9807 33.4891C46.4452 33.9319 44.9154 34.4216 43.399 35.0541C42.6435 35.3734 41.8806 35.7269 41.1221 36.2021C40.4282 36.7481 39.331 37.0862 39.0954 38.9978C39.0928 40.4978 41.5928 40.5022 41.5954 39.0022C41.4433 36.0073 39.513 34.2072 37.6328 32.8072C36.7256 32.2328 35.9673 31.6235 34.3749 31.5C34.375 32.3333 34.375 33.1667 34.3751 34C34.6593 33.9873 35.5802 34.4052 36.2048 34.8592C37.7206 35.9094 39.1054 37.6032 39.0954 38.9978C39.0928 40.4978 41.5928 40.5022 41.5954 39.0022C41.5765 39.1556 41.5756 39.0239 41.753 38.8562C41.9231 38.6828 42.1681 38.4983 42.4568 38.316C43.0189 37.9622 43.6891 37.6442 44.3666 37.3593C45.7346 36.7879 47.1969 36.3164 48.6701 35.8921C51.5631 35.0781 54.8454 34.2973 57.4999 34L57.5 31.5C53.377 30.9549 48.525 29.7898 44.4343 28.1699C44.4343 28.1699 44.4343 28.1699 44.4343 28.1699C43.7398 27.8805 43.0582 27.56 42.4824 27.2012C42.1895 27.0183 41.935 26.8289 41.7604 26.6528C41.5772 26.482 41.5754 26.3427 41.5954 26.5C41.5954 25 39.0954 25 39.0954 26.5C39.1026 27.8964 37.7189 29.5895 36.204 30.6403C35.5795 31.0946 34.659 31.5127 34.3749 31.5ZM34.3751 34L34.3749 31.5C32.8749 31.5001 32.8751 34.0001 34.3751 34L34.3749 31.5C32.8749 31.5001 32.8751 34.0001 34.3751 34Z" fill="url(#paint1_linear_564_254)" mask="url(#path-1-inside-1_564_254)"/>
<mask id="path-3-inside-2_564_254" fill="white">
<path d="M20 24.1237C24.3945 24.1237 28.7888 30.1099 28.7891 32.5195C28.7888 30.1099 33.1834 24.1161 37.5781 24.1237C33.1834 24.1161 28.7888 2.4096 28.7891 0C28.7891 2.4096 24.3945 24.1237 20 24.1237Z"/>
</mask>
<path d="M20 24.1237C24.3945 24.1237 28.7888 30.1099 28.7891 32.5195C28.7888 30.1099 33.1834 24.1161 37.5781 24.1237C33.1834 24.1161 28.7888 2.4096 28.7891 0C28.7891 2.4096 24.3945 24.1237 20 24.1237Z" fill="url(#paint2_linear_564_254)"/>
<path d="M27.0313 32.5197C28.2031 32.5196 29.375 32.5195 30.5469 32.5194C30.3728 30.2798 29.5153 29.2136 28.707 27.9381C26.7374 25.2949 24.2062 22.5858 20 22.3658C17.8906 22.3658 17.8906 25.8815 20 25.8815C21.3704 25.8472 22.1492 25.141 22.6893 24.6311C23.2443 24.0737 23.6138 23.5407 23.9671 22.9823C24.64 21.8973 25.1396 20.8098 25.5944 19.7236C25.5944 19.7235 25.5944 19.7235 25.5944 19.7235C28.089 13.2573 29.6411 7.19538 30.5469 0C30.5469 -2.10937 27.0314 -2.10953 27.0313 -0.000157146C27.5555 4.9923 28.6263 8.98828 29.8284 13.3865C30.4512 15.5458 31.1398 17.6971 32.0293 19.8296C32.4782 20.892 32.9753 21.9647 33.6436 23.0314C34.4114 24.0072 34.8869 25.5501 37.5751 25.8815C39.6845 25.8851 39.6905 22.3695 37.5812 22.3658C33.3696 22.5797 30.8383 25.2942 28.8695 27.9382C28.0618 29.214 27.2049 30.2803 27.0313 32.5197C28.2031 32.5196 29.375 32.5195 30.5469 32.5194C30.5291 32.1198 31.1166 30.8248 31.7551 29.9464C33.2319 27.8148 35.6138 25.8675 37.5751 25.8815C39.6845 25.8851 39.6905 22.3695 37.5812 22.3658C37.797 22.3925 37.6117 22.3936 37.3759 22.1442C37.132 21.905 36.8726 21.5605 36.6163 21.1545C36.1187 20.364 35.6715 19.4215 35.2709 18.4689C34.4674 16.5451 33.8042 14.4887 33.2077 12.417C32.0629 8.34874 30.965 3.73303 30.5469 0.000157146L27.0313 0C26.2647 5.79802 24.6263 12.6212 22.3483 18.3737C22.3483 18.3737 22.3483 18.3737 22.3483 18.3737C21.9413 19.3503 21.4906 20.3088 20.9861 21.1185C20.7288 21.5304 20.4625 21.8883 20.2148 22.1338C19.9747 22.3914 19.7789 22.394 20 22.3658C17.8906 22.3658 17.8906 25.8815 20 25.8815C21.9637 25.8713 24.3446 27.8172 25.8223 29.9476C26.4612 30.8257 27.0491 32.1202 27.0313 32.5197ZM30.5469 32.5194L27.0313 32.5197C27.0314 34.6291 30.5471 34.6287 30.5469 32.5194L27.0313 32.5197C27.0314 34.6291 30.5471 34.6287 30.5469 32.5194Z" fill="url(#paint3_linear_564_254)" mask="url(#path-3-inside-2_564_254)"/>
<mask id="path-5-inside-3_564_254" fill="white">
<path d="M17.1546 39C17.1546 35.875 21.4115 32.7502 23.125 32.75C21.4115 32.7502 17.1492 29.6252 17.1546 26.5C17.1492 29.6252 1.71349 32.7502 0 32.75C1.71349 32.75 17.1546 35.875 17.1546 39Z"/>
</mask>
<path d="M17.1546 39C17.1546 35.875 21.4115 32.7502 23.125 32.75C21.4115 32.7502 17.1492 29.6252 17.1546 26.5C17.1492 29.6252 1.71349 32.7502 0 32.75C1.71349 32.75 17.1546 35.875 17.1546 39Z" fill="url(#paint4_linear_564_254)"/>
<path d="M23.1251 34C23.125 33.1667 23.125 32.3333 23.1249 31.5C21.5323 31.6238 20.7741 32.2336 19.8671 32.8083C17.9875 34.209 16.061 36.009 15.9046 39C15.9046 40.5 18.4046 40.5 18.4046 39C18.3802 38.0255 17.8781 37.4717 17.5154 37.0876C17.1191 36.6929 16.74 36.4302 16.3429 36.179C15.5714 35.7004 14.7981 35.3452 14.0256 35.0217C14.0256 35.0217 14.0256 35.0217 14.0256 35.0217C9.4274 33.2478 5.11672 32.1441 5.96046e-08 31.5C-1.5 31.5 -1.50011 33.9999 -0.000111689 34C3.55008 33.6272 6.39167 32.8658 9.51929 32.0109C11.0548 31.5681 12.5846 31.0784 14.101 30.4459C14.8565 30.1266 15.6194 29.7731 16.3779 29.2979C17.0718 28.7519 18.169 28.4138 18.4046 26.5022C18.4072 25.0022 15.9072 24.9978 15.9046 26.4978C16.0567 29.4927 17.987 31.2928 19.8672 32.6928C20.7744 33.2672 21.5327 33.8765 23.1251 34C23.125 33.1667 23.125 32.3333 23.1249 31.5C22.8407 31.5127 21.9198 31.0948 21.2952 30.6408C19.7794 29.5906 18.3946 27.8968 18.4046 26.5022C18.4072 25.0022 15.9072 24.9978 15.9046 26.4978C15.9235 26.3444 15.9244 26.4761 15.747 26.6438C15.5769 26.8172 15.3319 27.0017 15.0432 27.184C14.4811 27.5378 13.8109 27.8558 13.1334 28.1407C11.7654 28.7121 10.3031 29.1836 8.8299 29.6079C5.93688 30.4219 2.6546 31.2027 0.000111808 31.5L5.96046e-08 34C4.12304 34.5451 8.97505 35.7102 13.0657 37.3301C13.0657 37.3301 13.0657 37.3301 13.0657 37.3301C13.7602 37.6195 14.4418 37.94 15.0176 38.2988C15.3105 38.4817 15.565 38.6711 15.7396 38.8472C15.9228 39.018 15.9246 39.1573 15.9046 39C15.9046 40.5 18.4046 40.5 18.4046 39C18.3974 37.6036 19.7811 35.9105 21.296 34.8597C21.9205 34.4054 22.841 33.9873 23.1251 34ZM23.1249 31.5L23.1251 34C24.6251 33.9999 24.6249 31.4999 23.1249 31.5L23.1251 34C24.6251 33.9999 24.6249 31.4999 23.1249 31.5Z" fill="url(#paint5_linear_564_254)" mask="url(#path-5-inside-3_564_254)"/>
<defs>
<linearGradient id="paint0_linear_564_254" x1="34.375" y1="32.75" x2="57.5" y2="32.75" gradientUnits="userSpaceOnUse">
<stop stop-color="#4EFDD1"/>
<stop offset="1" stop-color="#C2FFF0"/>
</linearGradient>
<linearGradient id="paint1_linear_564_254" x1="34.375" y1="32.75" x2="57.5" y2="32.75" gradientUnits="userSpaceOnUse">
<stop stop-color="#4EFDD1"/>
<stop offset="1" stop-color="#C2FFF0"/>
</linearGradient>
<linearGradient id="paint2_linear_564_254" x1="28.7891" y1="32.5195" x2="28.7891" y2="0" gradientUnits="userSpaceOnUse">
<stop stop-color="#4EFDD1"/>
<stop offset="1" stop-color="#C2FFF0"/>
</linearGradient>
<linearGradient id="paint3_linear_564_254" x1="28.7891" y1="32.5195" x2="28.7891" y2="0" gradientUnits="userSpaceOnUse">
<stop stop-color="#4EFDD1"/>
<stop offset="1" stop-color="#C2FFF0"/>
</linearGradient>
<linearGradient id="paint4_linear_564_254" x1="23.125" y1="32.75" x2="0" y2="32.75" gradientUnits="userSpaceOnUse">
<stop stop-color="#4EFDD1"/>
<stop offset="1" stop-color="#C2FFF0"/>
</linearGradient>
<linearGradient id="paint5_linear_564_254" x1="23.125" y1="32.75" x2="0" y2="32.75" gradientUnits="userSpaceOnUse">
<stop stop-color="#4EFDD1"/>
<stop offset="1" stop-color="#C2FFF0"/>
</linearGradient>
</defs>
</svg>
